<?xml version="1.0" encoding="UTF-8"?><svg id="Layer_1" xmlns="http://www.w3.org/2000/svg" viewBox="0 0 200 200"><defs><style>.cls-1{fill:#000;stroke-width:0px;}</style></defs><path class="cls-1" d="M0,92V0h92c-.09,1.99-.25,3.98-.25,5.96-.02,26.44-.01,52.89-.01,79.33v6.45c-6.55,0-12.49-.02-18.42,0-24.44.08-48.88.17-73.32.26Z"/><path class="cls-1" d="M108,0h92v92c-1.99-.09-3.98-.25-5.96-.25-26.45-.02-52.89-.01-79.34-.01h-6.46c0-2.72,0-4.83,0-6.93-.08-28.27-.16-56.54-.24-84.81Z"/><path class="cls-1" d="M92,200H0v-92c1.99.08,3.98.23,5.97.23,26.45.02,52.89.01,79.34.01,1.94,0,3.88,0,6.44,0,0,6.89-.02,13.16,0,19.43.08,24.11.17,48.22.26,72.33Z"/><path class="cls-1" d="M200,108v92h-92c.08-1.82.23-3.65.23-5.47.02-26.62.01-53.23.01-79.85,0-1.94,0-3.89,0-6.44,3.04,0,5.49,0,7.94,0,27.94-.08,55.88-.16,83.82-.24Z"/></svg>