<?xml version="1.0" encoding="UTF-8"?><svg id="Layer_1" xmlns="http://www.w3.org/2000/svg" viewBox="0 0 564.48 359.45"><defs><style>.cls-1{stroke-width:0px;}</style></defs><path class="cls-1" d="M170.06,16.08c.27-.08.56-.11.8-.24.62-.32,1.4-1.11,1.77-.95.88.4,1.6,1.21,2.31,1.93.28.28.35.77.67,1.55.12-.84.1-1.33.27-1.73.12-.3.58-.76.73-.7,2.39.84,4.5-.89,6.9-.63-.35-.51-.65-.94-.73-1.06-1.48.39-2.96,1.21-4.28,1.01-1.46-.22-2.96-.74-4.43-1.16-1.09-.31-2.07-1.21-2.92-2.03-.54-.51-.48-1.22-.35-2.14.17-1.13,1.53-2.6-.02-3.86-.16-.13-.01-1.07.22-1.19.85-.45,1.78-.79,2.72-1.02.67-.17,1.4-.11,2.38-.16.59.3,1.51.76,2.65,1.33-.17-.72-.27-1.18-.4-1.74.34-.26.77-.5,1.07-.85.92-1.05,1.2-1.01,1.9.24.25.44.63.82.94,1.22.4-.39.87-.74,1.18-1.19.24-.34.29-.8.43-1.23.61-.24,1.25-.49,2.08-.81.25.31.6.74,1.03,1.28.19-.72.36-1.34.53-1.95.3,0,.59,0,.89,0,.78.71,1.57,1.42,2.39,2.16.18-.68.37-1.42.57-2.16.49,0,.99,0,1.48,0,.86.42,1.72.83,2.95,1.43,1.3-.27,2.92-.19,4.31,1.28.46.49,1.37.53,1.99.92.34.21.51.72.49,1.3.66.11,1.32.19,1.97.34.27.06.66.21.74.42.45,1.17,1.05,2.34,1.15,3.55.06.7-.55,1.73-1.17,2.14-1.68,1.12-3.51,2-5.64,1.9-.36-.02-.73.13-1.4.26.63.47,1.01.77,1.75,1.32-1.36.8-2.48,1.71-3.76,2.16-3.17,1.12-5.98,2.72-8.22,5.24-.89,1-1.81.74-2.79.13.02.16.04.31.06.47-1.25.23-2.51.45-3.66.66.29.58.58,1.16.87,1.74-.46.12-.93.24-1.4.37.26,1.66-.7,2.95-2.09,4.19-1.08.96-1.99,1.38-3.35,1.1-.18-.04-.57.28-.63.49-.37,1.36-1.5,1.86-2.6,2.44-.82.44-1.42.95-.31,1.85.78.62.39,1.81-.78,2.25-1.13.42-2.35.63-3.64.96-.24-1.29-.97-1.76-2.19-1.66-.44.04-.91-.32-1.38-.45-.36-.1-.94-.33-1.08-.18-1.08,1.12-1.95.27-2.88-.21-1.13-.59-2.32-1.1-3.38-1.79-.45-.3-.65-.98-.97-1.51,2.28-.66,4.22-1.21,6.4-1.84.48-.81-1.31-2.69.83-3.2,1.54-.37,1.46,1.22,1.89,2.12,1.12-.94,1.04-2.27-.1-2.74-1.1-.46-1.19-.99-.35-1.92.46-.51.92-1.02,1.38-1.53l-.3-.3c-.86.6-1.74,1.18-2.59,1.81-1.2.88-2.46.29-3.42-.21-.67-.35-1.21-1.55-1.25-2.4-.11-2.26.38-2.72,3.13-3.56-.62-.35-.99-.62-1.41-.8-.99-.41-1.39-.98-.87-2.07.5-1.05.86-2.17,1.32-3.33.59.16,1.03.29,1.69.47-.41-.91-.75-1.67-1.14-2.54,1.12-.29,2.04-.54,3.08-.81-.88-2.51,1.36-2.03,2.91-2.51-.55-.46-.93-.77-1.69-1.4.82-.16,1.49-.5,1.76-.3.59.42,1.09,1.08,1.41,1.74.18.37-.06.96-.14,1.44-.24,1.52-.29,2.89,1.41,3.75,1.55.79.33,2.04.31,3.08-.66,1.05-.87,2.04-.2,3.27.25.45-.27,1.4-.57,2.07-.24.53-.67.96-1.15,1.62.56,0,.86.09,1.03-.01,1.5-.97,2.04-5.36.89-6.94Z"/><path class="cls-1" d="M365.74,186.52c.52-.56.84-.91,1.48-1.6.18,1.14.32,1.92.43,2.7.16,1.19.57,2,2.02,1.53.41-.13.88-.13,1.32-.1,1.16.09,1.93-.45,2.61-1.35.75-1,1.63-1.91,2.71-3.15.16.99.25,1.55.35,2.12.31,1.9,1.16,2.84,3.08,2.98,1.93.14,2.64,1.66,3.37,2.94.28.49-.43,1.72-.92,2.45-.82,1.21-2.42,1.96-2.09,3.81.02.1-.12.28-.23.36-1.16.83-2.65,1.43-3.41,2.53-1.27,1.83-3.22,1.8-4.92,2.49-.38.16-.68.53-1.01.82-.64.56-1.18,1.3-1.91,1.65-2.47,1.18-5,2.23-7.51,3.3-.4.17-.87.16-1.28.3-.85.27-1.72.51-2.53.87-1.56.69-3.19,1.05-3.69-1.18-.36-1.61-.57-3.27-1.05-4.84-.31-1-.95-1.91-1.5-2.82-.68-1.13-1.38-2.25-2.16-3.3-.52-.69-1.13-1.36-1.83-1.85-1.31-.91-2.03-2.01-2.13-3.66-.11-1.82-.75-3.45-2.58-4.34-.36-.17-.64-.58-.87-.93-1.24-1.94-2.44-3.91-3.68-5.86-.98-1.55-1.94-.1-3.21-.06.73,1.55,1.34,2.93,2.02,4.27.4.79,1.13,1.45,1.37,2.27.59,1.94,1.69,3.39,3.05,4.89.93,1.02.82,2.96,1.29,4.45.22.7.54,1.56,1.09,1.94,1.47,1.04,2.15,2.44,2.73,4.07.37,1.02,1.23,1.93,2.04,2.72,1.79,1.73,3.7,3.34,5.54,5.02.16.14.3.51.23.65-.6,1.17.35,1.66.92,2.36.9,1.1,1.8,1.1,3.12.62,1.69-.61,3.54-.74,5.31-1.14,1.43-.32,2.85-.69,4.24-1.14.78-.26,1.16-.11,1.17.7.03,1.95-.2,3.82-1.3,5.52-.69,1.07-1.29,2.21-1.81,3.37-1.72,3.83-4.29,6.81-7.76,9.26-2.38,1.67-4.25,4.07-6.35,6.15-.66.65-1.47,1.21-1.95,1.98-1.25,1.96-2.37,4.01-3.52,6.04-.08.14-.07.47.03.57,1.43,1.37.37,3.19.89,4.69.38,1.12,1.01,2.16,1.51,3.24.18.38.43.78.43,1.18,0,1.97-.15,3.94-.07,5.9.1,2.51-.93,4.41-3.09,5.44-2.77,1.32-4.95,3.37-7.31,5.21-.94.73-1.13,1.46-.76,2.55.6,1.72.94,3.44.6,5.35-.25,1.4-.91,2.09-2.1,2.53-.65.24-1.33.39-1.94.71-.82.42-1.06,1.03-1.16,2.09-.16,1.68-.82,3.39-1.61,4.91-.61,1.18-1.74,2.1-2.65,3.12-1.44,1.61-2.81,3.3-4.36,4.8-2.4,2.32-5.34,3.16-8.69,3.16-2.07,0-4.17.56-6.21,1.07-1.46.36-3.48-.54-3.75-2.04-.16-.9-.08-1.85-.11-2.78,0-.25.07-.52-.01-.73-.95-2.3-1.64-4.78-2.96-6.84-1.32-2.06-2.25-4.11-2.51-6.52-.46-4.41-1.74-8.61-4.12-12.32-1.05-1.64-1.63-3.2-1.23-4.94.6-2.64.88-5.46,3.12-7.45,1.17-1.04.96-2.33.57-3.69-.34-1.19-.48-2.44-.7-3.66-.04-.19-.02-.4-.08-.58-1.03-3.16-1.76-6.45-4.5-8.76-.82-.69-1.56-1.52-2.17-2.4-.84-1.22-1.36-2.41-.56-4.06.73-1.5.95-3.27,1.21-4.96.36-2.33-1.46-3.97-3.74-3.51-.58.12-1.17.2-1.74.33-1.47.31-2.45-.17-3.04-1.61-.93-2.26-2.2-2.99-4.54-2.33-2.31.65-4.5,1.69-6.79,2.38-.92.28-2.01.23-2.97.07-2.39-.4-4.76-.42-6.93.64-1.45.71-2.65.57-3.87-.23-1.15-.76-2.24-1.6-3.36-2.41-.6-.43-1.15-.99-1.82-1.25-1.9-.75-2.74-2.25-3.33-4.07-.22-.66-.67-1.29-1.13-1.83-.91-1.06-1.89-2.06-2.88-3.05-.29-.29-.68-.52-1.07-.7-1.24-.57-1.75-1.52-1.58-2.86.03-.24.2-.58.09-.71-1.91-2.43.78-4.3.79-6.49,0-1.11.17-2.22.2-3.34.02-.68-.05-1.36-.13-2.03-.05-.41-.1-.96-.37-1.19-1.24-1.06-.87-2.2-.22-3.32,1.41-2.42,2.62-5.01,4.37-7.15,1.35-1.66,2.43-3.66,4.77-4.55,2.3-.87,3.92-2.54,3.84-5.51-.04-1.77.69-3.64,2.47-4.71.34-.2.65-.46,1.01-.62,1.61-.75,2.73-1.85,3.08-3.69.2-1.05.79-1.38,1.79-.57.44.36,1.16.46,1.77.55,1.01.15,2.03.24,3.05.27.47.01,1.03-.03,1.4-.28,2.52-1.72,5.24-2.9,8.3-3.14,1.94-.15,3.89-.22,5.84-.38,1.36-.11,2.7-.4,4.06-.41,1.1-.01,2.21.27,2.91.36.26,1.24.59,2.12.6,3.01.01.7-.16,1.55-.59,2.07-.76.92-.63,1.25.37,1.87,1.6,1,3.21,1.5,5.11,1.54,1.53.03,3.17.36,3.74,2.29.1.35.71.61,1.13.79,1.38.59,2.77,1.17,4.18,1.67.59.21,1.52.48,1.82.21.46-.42.76-1.32.69-1.97-.16-1.52.28-2.57,1.75-2.94,1.45-.37,2.8-.29,4.23.55,1.4.83,3.09,1.22,4.7,1.64,1.76.45,3.57.75,5.37,1.01.59.08,1.22-.17,1.83-.25,1.2-.15,2.45-.59,3.58-.37,4.16.81,4.8.1,5.6-3.12.32-1.29.95-2.51,1.17-3.8.2-1.24.04-2.53.04-3.8-1.3-.41-2.24-.49-3.29.41-1.06.91-2.38,1.09-3.64.03-.9-.75-1.82-1.01-2.87,0-.75.72-1.77.8-2.69.05-.26-.21-.61-.54-.86-.5-1.62.3-2.24-.99-3.08-1.88-.57-.59-1.04-1.28-1.59-1.98.33-.25.77-.57,1.39-1.04-.7-.24-1.13-.39-1.61-.55.06-.73.28-1.44.14-2.08-.15-.68-.61-1.8-.98-1.82-.92-.05-2.37.13-2.72.74-.73,1.28-1.38,1.14-2.46.33.12,2.54,2.52,3.43,3.46,5.5-1.7.29-2.55,1.15-2.45,2.69-2.82.75-2.71-2.65-4.92-3.06.49-.26.72-.38,1.07-.56-.98-1.35-1.96-2.66-2.89-3.99-.21-.31-.44-.74-.4-1.08.41-3.37-2-4.37-4.38-5.62-1.33-.7-2.39-1.92-3.58-2.88-.36-.29-.74-.57-1.16-.75-.7-.29-1.58-.28-1.69-1.35-.02-.19-.57-.52-.73-.45-.41.18-.94.47-1.07.85-.32.93-.16,1.76.68,2.51.94.84,1.63,1.94,2.55,2.8.79.73,1.75,1.28,2.64,1.89,1.67,1.14,3.35,2.26,4.99,3.43.17.12.09.59.15,1.13-.51-.25-.79-.44-1.09-.51-.43-.1-1.1-.29-1.26-.1-.25.29-.3.92-.17,1.33.52,1.68-.3,3.51-1.85,4.14-.39.16-.7.68-.88,1.11-.17.4-.12.9-.21,1.68-1.74-.91-3.21-1.68-4.68-2.45.03-.17.06-.33.1-.5.43-.11.85-.26,1.28-.32.93-.12,1.9-.05,2.77-.33.71-.22,1.77-.79,1.82-1.29.09-.86-.22-2.1-.84-2.63-1.43-1.22-3.26-1.97-4.71-3.18-1.71-1.43-3.42-2.98-4.69-4.78-1.42-2.01-2.15-2.41-4.17-1.05-.81.54-1.57,1.17-2.41,1.65-.36.2-.89.2-1.33.15-.43-.05-.82-.34-1.24-.44-2.46-.58-3.05-.22-3.25,2.28-.12,1.48-.88,2.14-2.12,2.86-1.21.7-2.08,2-3.07,3.07-.14.15-.21.5-.14.7,1.01,3.04-1.43,4.17-3.17,5.6-.44.36-1.34.13-2,.29-1.12.26-2.3.46-3.31.97-1.04.52-1.76.54-2.33-.52-.52-.98-1.21-1.41-2.4-1.19-1.11.21-2.12-.04-2-1.57.02-.24,0-.54-.14-.71-1.26-1.59-.38-3.04.03-4.66.41-1.61.18-3.39.21-5.1,0-.59-.31-1.57-.08-1.71.87-.54,1.92-1.14,2.89-1.13,2.82.03,5.65.29,8.46.57,1.12.11,1.59-.4,1.71-1.34.16-1.37.28-2.75.28-4.12,0-.41-.39-.84-.66-1.22-.25-.36-.73-.61-.85-.99-.4-1.25-1.37-1.76-2.49-2.07-.84-.23-1.88-.49-1.55-1.51.17-.54,1.25-.79,1.94-1.14.15-.08.39,0,.58.03q2.16.36,2.18-1.76c.07-.05.19-.17.22-.15,1.88,1.13,3.12-.47,4.59-1.08.04-.02.11-.05.12-.09.73-2.6,4.23-3.11,4.55-6.07.05-.46.65-1.06,1.13-1.25,1.54-.6,3.11-1.13,4.72-1.52.91-.22,1.36-.65,1.22-1.49-.15-.96-.37-1.95-.77-2.83-1.12-2.43.48-5.51,3.18-5.96.13,1.1.25,2.22.43,3.75-.83,1.08-.63,1.75,1.37,2.93-.05-.65-.33-1.4-.07-1.84.27-.46,1.11-.56,1.57-.96.27-.23.52-.92.37-1.11-1.57-2.17-2.2-4.7-2.95-7.19-.04-.12-.21-.19-.5-.44-.89.74-1.91,1.41-2.69,2.3-1.58,1.8-4.11,1.82-5.43-.16-.26-.4-.04-1.12.31-1.75-.31-.28-.62-.57-.93-.85,0-.11-.03-.24.02-.29.77-.82.76-1.71.09-2.53-1.18-1.47-.49-3.11-.51-4.68,0-.13.07-.32.17-.4,1.17-.87,2.36-1.73,3.54-2.6.58-.43,1.14-.89,1.74-1.37.61-.6,1.23-1.15,1.77-1.76.98-1.12,1.93-2.26,2.85-3.42.26-.33.51-.74.58-1.14.39-2.21.8-4.39,2.58-6,.19-.17.18-.56.32-.81.65-1.15,1.32-2.3,2-3.48-.53.06-1.36.15-2.67.3.48-1.21.87-2.19,1.26-3.17.17.06.35.11.52.17-.05.39-.1.78-.17,1.4.87-.04,1.62-.08,2.71-.13-1.17-1.53-1.42-2.49.5-2.92.57-.13,1.01-.87,1.52-1.35.83.84,1.22.72,1.88-.51.22-.41.84-.59,1.26-.89.47-.34.92-.71,1.15-.89,1.68-.82,3.15-1.53,4.66-2.26.47.43,1.03.94,1.52,1.38.62-.55,1.19-1.05,1.76-1.55.32.45.64.89.98,1.36,1.59-1.02,2.76.39,4.16.75.03.14.07.28.1.42-.7.47-1.4.95-2.27,1.54.97.69,2.06.81,3.02.38,1.08-.49,1.57-.31,2.04.76.15.34.97.62,1.42.56,2.09-.3,3.87.33,5.6,1.41,1.82,1.14,3.8,2.05,5.51,3.32.79.59,1.55,1.8,1.55,2.74.01,1.46-.93,2.64-2.5,3.12-2.16.65-4.2.05-6.24-.53-1.08-.3-2.13-.7-3.19-1.05-.08.12-.15.24-.23.37.65.48,1.36.92,1.94,1.47.49.47.97,1.03,1.23,1.65.33.79.46,1.66.63,2.51.39,1.91,2.15,2.22,3.53,2.92.29.15.88-.27,1.33-.42-.31-.3-.6-.62-.93-.88-.42-.33-1.08-.52-1.26-.93-.19-.44-.01-1.1.17-1.61.04-.12.79-.1,1.14.04.92.35,1.78.85,2.7,1.19.34.12.97.09,1.13-.12.19-.25.18-.93-.03-1.16-1.09-1.15-.51-2.09.31-2.96,1.08-1.16,2.04-2.65,4.06-1.8.2.08.8-.22.81-.38.06-.61.19-1.49-.14-1.8-.87-.81-.68-1.7-.76-2.68-.08-.96-.61-1.89-.94-2.81,2.54-.56,3.21-.28,4.5,2-.15.16-.33.32-.46.52-.31.48-.94,1.31-.84,1.4.59.58,1.3,1.23,2.06,1.39.4.08,1.05-.75,1.48-1.26.45-.53.74-1.2,1.16-1.76,1.52-2.06,3.86-3.07,5.84-4.54.63-.47.99-.28,1.2.38.13.4.19.83.31,1.35,1.62-.75,3.18-1.37,4.64-2.16,1.87-1.02,2.25-1.02,3.24.55,1.93-1.68,1.79-2.85-.47-4.08-.73-.4-1.55-.71-2.15-1.25-.39-.35-.47-1.06-.68-1.6.5.06,1.15-.05,1.48.22,1.59,1.33,3.37,1.48,5.37,1.57,1.68.07,3.35.92,4.97,1.57,1.67.66,3.29,1.49,5.03,2.3.35-.76.47-1.48-.49-1.9-1.02-.45-1.44-1.9-2.95-1.67-.22.03-.67-1.35-.99-2.1-.38-.92-.79-1.83-1.08-2.78-.23-.75-.67-1.8-.35-2.28,1.11-1.66.75-3.41.71-5.15-.05-2.33-.08-2.33,1.88-2.57,2.21-.27,3.34.37,3.7,2.1.1.48.25.97.25,1.45.01,1.62.5,2.88,1.62,4.2,1.08,1.27,1.41,3.2,2.03,4.85.53,1.43,1.16,2.68,2.36,3.8.78.73.84,2.39.93,3.65.06.89-.33,1.83-.57,2.73-.32,1.18-.73,2.27-2.5,1.41,1.02,1.4,3.19,1.36,3.7.08.63-1.57,1.13-3.2,1.55-4.84.11-.43-.18-1.06-.46-1.47-1.15-1.64-1.14-1.88.41-3.09.34-.26.65-.55.97-.82-.06-.16-.11-.31-.17-.47-.55.16-1.17.21-1.64.49-1.28.77-1.92.68-2.54-.68-.45-.97-.91-2.02-.97-3.05-.08-1.3-.53-2.2-1.5-3.03-1.67-1.42-1.68-2.38-.89-4.38.35-.89.06-2.03.06-3.51.52.93.89,1.53,1.2,2.16.1.21.07.48.12.73.57,2.9,1.36,3.43,5.01,3.1-.47-.12-.98-.18-1.41-.38-.65-.3-1.33-.63-1.85-1.11-.28-.26-.24-.85-.35-1.29.44-.04.87-.1,1.31-.12.45-.02.89,0,1.34.01-.3-.36-.62-.71-.91-1.07-.35-.43-1.04-.96-.96-1.3.24-.98,1.09-.79,1.81-.49,1.52.65,3.02,1.38,4.55,2.01.52.22,1.13.39,1.68.35,1.93-.16,1.94-.14,1.71,1.69-.07.54.14,1.14.36,1.66.08.19.67.4.78.31.24-.21.5-.64.44-.9-.67-2.9-2.74-4.37-5.43-5.17-.37-.11-.88-.2-1.04-.47-.76-1.25-1.49-2.53-2.07-3.86-.12-.27.34-1.04.71-1.22,1.91-.9,3.86-1.73,5.83-2.47.44-.17,1.06.12,1.8.23-.11-.29-.14-.7-.36-.86-.51-.37-1.1-.64-1.68-.91-2.83-1.31-2.75-2.75-.88-4.89,1.44-1.64,2.7-3.49,4.86-4.35.2-.08.26-.61.32-.95.05-.27-.12-.73,0-.8,1.25-.8,2.55-1.54,4.09-2.44-.04.83-.06,1.25-.08,1.74,1.28-.03,2.31-.6,2.48-1.72.21-1.34.8-1.88,2.37-1.83-.27-.74-.36-1.37-.69-1.82-1.15-1.53-1.34-4.72-.17-6.22.26-.34.98-.63,1.35-.51.91.28,2.32-.11,2.54,1.29.2,1.23.91,1.5,1.86,1.24,1.4-.38,1.79.27,1.82,1.48,0,.15-.02.32.05.44.23.41.5.8.76,1.19.17-.47.35-.93.49-1.41.03-.12-.07-.28-.14-.53,1.09-.53,2.16-1.11,3.29-1.56.34-.14.87-.01,1.24.17,1.66.8,3.44,1.47,4.92,2.55,2.89,2.12,2.7,5.02,1.65,8.08-.55,1.6-.75,3.32-1.26,4.94-.33,1.06-.92,2.05-1.46,3.22,2.42.3,2.83-1.58,3.85-2.68-.16,0-.32-.02-.48-.03-.1-.71-.52-1.82-.24-2.04.63-.49,1.56-.94,2.39.1.91,1.16,1.59.36,2.29-.11.87-.21,1.74-.41,2.61-.62,1.53-.37,3.05-.81,4.59-1.08.31-.05.92.44,1.06.8.42,1.05.98,1.41,2.05.89.27-.13.62-.09.94-.1.83-.01,1.74.2,2.49-.05,2.05-.67,2.04-.76,1.19-2.69-.47-1.07.21-1.68.99-1.68,2.26,0,4.59-.01,6.76.51.98.23,1.64,1.73,2.47,2.63.23.25.56.42.84.62.76.54,1.67.98.77,2.17-.54.72.02.85.65.92.39.05.81.22,1.12.45,1.41,1.1,2.65,2.55,5,2.24-.5-1.6-.97-3.1-1.57-5.01.8.4,1.18.65,1.61.79,1.2.37,2.43.79,3.17-.78.1-.2.32-.44.52-.48,1.8-.37,3.61-.7,5.41-1.06.17-.03.32-.17.78-.42-1-1-1.97-1.85-2.78-2.84-.27-.33-.29-1.03-.15-1.47.11-.32.67-.5,1.22-.86-.52-.41-.95-.75-1.47-1.16.23-.14.41-.35.59-.35,2.94-.04,5.89-.04,8.84-.11.44-.01.86-.41,1.31-.52,1.16-.29,2.35-.76,3.51-.7,1.06.06,2.25.62,1.38,2.24,1.39.53,2.5,1.3,4.08.84.6-.18,1.73.51,2.23,1.13.74.89,1.26.78,2.11.28,1.6-.95,3.22-1.91,4.91-2.67,2.63-1.16,5.77.25,6.9,2.95.72,1.72,1.04,1.88,2.89,1.44.29-.07.61-.1.84-.26,2.3-1.56,4.95-2.03,7.6-2.55.43-.08.85-1.03.96-1.64.15-.79-.02-1.72,1.17-1.6,1.07.11,1.29.75.97,1.8-.32,1.03.48,1.42,1.33,1.74.7.27,1.32.77,2.02,1.05.4.16,1.05.27,1.31.05.31-.25.56-1.01.4-1.29-.41-.7-.97-1.57-1.66-1.81-1.58-.55-1.63-1.89-2.19-3.22.59-.1,1.06-.15,1.51-.26,1.48-.35,2.93-.8,4.43-1.04,1.53-.25,3.12-.53,4.63-.36,1.92.2,3.8.84,5.7,1.29.19.05.38.14.57.15,3.02.17,6.06.24,9.07.55.82.08,1.67.76,2.34,1.35.83.73,1.5,1.65,2.24,2.48.16-.07.31-.14.47-.21-.16-.45-.21-1-.51-1.32-.84-.89-.77-1.34.26-2.18,1.2-.99,2.16-1.23,3.54-.58.78.36,1.71.41,2.44.58.39.94.88,1.76,1.04,2.65.11.63-.05,1.51-.44,1.99-.6.75-.34,1.15.11,1.77.46.63.71,1.41,1.11,2.09.23.39.62.68.86,1.07.29.46.71.99.67,1.46-.03.29-.76.65-1.23.76-.99.23-2.02.43-3.02.4-.54-.02-1.14-.47-1.56-.89-.8-.77-1.47-.7-2.11.11-1.54,1.95-1.84,1.96-3.56.02-1.04.93-.94,1.64.31,2.24,1.99.96,3.08,4.76,1.75,6.48-.41.54-1.2.78-1.98,1.26.22.26.47.78.66.76,1.4-.15,2.18.9,3.03,1.62,1.71,1.44,3.39,2.98,4.8,4.7,1.04,1.27.34,2.37-1.31,2.26-1.24-.09-2.15.35-2.73,1.36-1.29,2.25-2.71,4.45-2.92,7.17-.12,1.58-.43,3.15-.69,5.04-.43-.2-1.04-.38-1.54-.72-2.11-1.42-3.67-.87-4.41,1.61-.1.35-.28.68-.6,1.47-.4-.7-.64-1.12-.79-1.36-1,.68-1.92,1.18-2.64,1.88-.32.31-.36,1.07-.3,1.59.19,1.49.48,2.97.78,4.45.18.88.45,1.74.68,2.63,2.24-.73,2.54-.44,2.66,1.68.03.59.62,1.17,1.01,1.72.5.69,1.1,1.32,1.57,2.03.09.14-.19.76-.35.79-1.98.31-1.13,1.7-.86,2.6.24.8.96,1.46,1.5,2.16.47.6.6,1.07-.18,1.57-1.76,1.13-2.09,2.71-1.04,4.59.14.25.26.51.47.91-1.84.61-1.77,1.83-1.21,3.3.63,1.65-.2,3.04-1.05,4.76-.61-.58-1.19-.94-1.52-1.46-1.34-2.11-2.53-4.31-3.9-6.4-1.92-2.94-3.88-5.86-4.7-9.32-.26-1.1-.09-2.29-.1-3.45-.01-.93,0-1.87-.24-2.83,1.64-1.52,1.84-3.53,1.8-5.74-.03-2.2.32-4.4.52-6.59.02-.19.06-.43.18-.55,2.06-1.96.5-3.91,0-5.86-.27-1.05-.65-2.07-1.08-3.42-.21.06-1.14.29-1.13.35.23,1.31.56,2.61.88,3.89-.31.94-.63,2.06-1.05,3.14-.22.56-.63,1.05-.95,1.57-.63-.55-1.36-1.03-1.85-1.68-.29-.38-.21-1.03-.3-1.62-.74.04-1.41.03-2.07.13-2.38.35-3.04,1.2-3.11,3.56-.04,1.31-.3,2.62-.48,3.92-.16,1.24-.5,2.53,1.33,2.86.2.04.52.47.47.61-.13.34-.38.72-.69.9-.98.58-2.01,1.08-3.02,1.62-.95.5-1.65.59-1.44-.86.02-.14.02-.4-.01-.41-1.12-.27-2.24-.59-3.38-.71-.39-.04-1.14.41-1.2.73-.2,1.08-.96,1.23-1.79,1.44-2.25.56-4.5,1.15-6.74,1.75-1.38.37-2.15,1.01-2.03,2.71.1,1.35-.28,2.8-.71,4.12-1.06,3.21-2.29,6.36-3.42,9.54-.19.53-.25,1.1-.38,1.64.55.06,1.14.26,1.65.15,1.24-.27,1.18.74,1.52,1.37.14.25.27.51.49.91.23-.52.39-.89.66-1.48.49.71.88,1.28,1.33,1.95.25-.32.45-.52.57-.77.68-1.38,1.71-1.69,3.04-.9.08.05.15.13.24.16,2.04.72,3,2.35,3.64,4.26.08.25.24.47.61.62-.32-2.12-.64-4.25-1-6.62.41.16.87.19,1.01.42,1.16,1.9,2.95,3.43,3.11,5.9.04.71.64,1.41,1.05,2.07,1.47,2.37,2.97,4.72,4.41,6.99-.72.6-1.65,1.07-1.6,1.4.23,1.57.58,3.16,1.18,4.63.33.8,1.25,1.35,1.85,2.06.29.34.47.78.86,1.46-1.3-.26-2.7-1.28-2.52,1.41-.56-.73-.96-1.03-1.08-1.42-1.01-3.42-1.82-6.9-3-10.25-.83-2.35-1.41-4.93-4.02-6.53.19,1.75-.07,3.73.66,5.21,1.48,3.03,1.43,5.92.89,9.13-.67,3.93-2.08,7.55-3.6,11.17-.32.76-.78,1.5-1.31,2.12-.81.96-1.84,1.34-3,.51-.69-.49-1.13-.33-1.56.37-.33.54-.77,1.02-1.22,1.47-.84.82-1.28,1.68-.89,2.9.52,1.61-.44,2.72-1.47,3.77-1.6,1.63-1.44,1.76.26,3.29,2.36,2.12,4.28,4.62,4.73,7.92.18,1.33-.75,2.34-2.08,2.48-.56.06-1.21.18-1.63.51-1.08.86-1.49.28-1.73-.69-.1-.42.03-.89-.06-1.32-.17-.85-.43-1.68-.64-2.51-.09-.34-.28-.71-.21-1.02.27-1.2-.4-2.23-1.61-2.04-1.7.27-1.89-.58-1.95-1.91-.04-.96.61-2.23-.95-2.75-1.38-.46-3.06-.05-4.16,1.14-.48.51-.96,1.01-1.45,1.52-.14-.07-.29-.14-.43-.22.16-1.33.39-2.66.44-4,.02-.42-.34-1.08-.7-1.23-.35-.15-1.13.04-1.36.35-.9,1.25-1.63,2.62-2.5,3.9-.24.36-.71.64-1.14.78-1.26.41-1.52,1.07-.59,1.97.86.84,1.77,1.64,2.74,2.34.23.17.97.04,1.15-.19.91-1.22,1.93-1.54,3.29-.76.26.15.72-.05,1.01.08.42.18.78.52,1.16.8-.3.36-.56.78-.91,1.08-.94.8-2.16,1.37-2.85,2.34-1.47,2.06-1.25,2.55.78,3.98.49.35.8.96,1.18,1.46.85,1.12,1.73,2.22,2.5,3.39.23.35.19.9.25,1.36.02.13-.14.36-.1.39,1.25,1.01.54,1.84-.37,2.58,2.34,1.58,2.38,3.2,1.12,5.52-.91,1.68-2.65,3.18-2.1,5.53.1.43-.63,1.07-1.01,1.6-1.9,2.68-4.03,5.09-7.56,5.5-2.41.28-3.96,2.43-6.32,2.8-.17.03-.25.54-.39.82-.16.32-.34.62-.52.93-.32-.19-.83-.31-.93-.59-.41-1.1-1.19-1.94-2.27-1.67-1.37.35-2.86.81-3.52,2.36-.17.4-.59.71-.69,1.11-.18.73-.54,1.72-.23,2.2.86,1.33,1.83,2.76,3.13,3.59,3.09,1.97,4.16,4.9,4.5,8.23.22,2.14-.97,3.59-2.72,4.72-1.3.84-2.51,1.83-3.75,2.77-.37.28-.73.58-1.25.99-.13-.51-.27-.78-.26-1.04.03-1.21-.03-2.13-1.68-2.36-.78-.11-1.53-1.19-2.07-1.98-.82-1.2-1.77-2.04-3.23-2.35-.43-.09-.75-.65-1.13-.97-.21-.18-.47-.47-.66-.44-.19.03-.42.37-.49.62-.43,1.62-.94,3.23-1.18,4.87-.1.69.32,1.52.67,2.21.54,1.07,1.19,2.09,1.83,3.1.35.55.71,1.14,1.2,1.56.93.79,1.98,1.46,2.94,2.21,1.2.94,1.68,2.14,1.69,3.73,0,1,.72,1.97,1.01,2.99.17.6.13,1.26.18,1.9-.53-.12-1.08-.18-1.59-.35-2.38-.78-3.6-2.81-4.87-4.71-.46-.69-.56-1.66-.67-2.52-.29-2.47-2.09-3.91-3.6-5.57-.31-.34-.69-.8-.68-1.2.06-1.45.39-2.91.38-4.35-.01-1.45-.16-2.94-.53-4.34-.46-1.75-1.26-3.4-1.81-5.13-.6-1.86-1.21-2.11-2.83-1.05-.41.27-.83.55-1.28.72-1.83.67-2.5.12-2.24-1.81.22-1.62-.07-3.04-1.65-3.92-.16-.09-.43-.28-.41-.38.3-1.65-1.29-1.82-2-2.69-.94-1.15-1.59-2.54-2.49-4.02-.35.12-.87.34-1.42.49-1.44.41-2.88.88-4.35,1.15-1.17.22-1.97.53-2.25,1.89-.15.72-.85,1.37-1.41,1.95-2.05,2.13-4.11,4.26-6.23,6.32-.72.7-1.69,1.15-2.44,1.83-.48.44-.88,1.05-1.07,1.66-.17.53-.1,1.19.03,1.76.35,1.47.49,2.9-.28,4.29-.07.12-.1.3-.06.43.69,2.44-1.14,3.67-2.45,5.14-.1.11-.21.21-.3.32-1.4,1.72-2.5,1.51-3.45-.55-1.99-4.3-4.22-8.5-5.99-12.89-1.14-2.84-1.66-5.93-2.43-8.91-.22-.85-.33-1.72-.46-2.38-1.19.54-2.46,1.65-3.34,1.4-1.32-.38-2.36-1.71-3.75-2.82.9-.34,1.36-.51,1.78-.67-1.58-.95-3.12-1.81-4.58-2.79-.4-.27-.55-.9-.86-1.33-.94-1.29-2.12-1.89-3.8-1.55-4.61.95-9.21.37-13.76-.5-.54-.1-1.09-.9-1.38-1.5-.57-1.18-1.3-1.58-2.45-.86-2.03,1.28-3.75.39-5.45-.71-.33-.21-.59-.66-.93-.7-2.14-.29-2.84-2.05-3.84-3.55-.34-.51-.8-1.18-1.3-1.28-.75-.15-1.87-.12-2.3.33-.37.39-.18,1.58.13,2.25.42.91,1.22,1.64,1.79,2.48.63.92,1.19,1.88,1.77,2.83.25.4.47.82.79,1.37ZM294.61,122.29c.91,2.13,1.15,2.2,3.03,1.1,1.15-.67,2.29-1.38,3.53-1.84.57-.21,1.57-.13,1.97.24,1,.92,1.63.96,2.28-.27.12-.24.4-.48.65-.55,1.2-.33,1.02-1.16.95-2.1-.08-1.1-.12-2.27.19-3.31.59-1.98,1.48-2.15,2.99-.76.58.53,1.28.77,1.43-.16.12-.77-.13-1.73-.54-2.41-.5-.83-1.28-.61-2.01-.02-.2.16-.7-.04-1.07-.07.23-.3.43-.64.7-.89.35-.31.92-.46,1.13-.83,1.08-1.91,2.92-2.99,4.96-2.24,2.17.79,2.95-.94,4.47-1.62-2.33-1.81-4.65-1.33-6.75-.41-1.8.79-3.29.97-4.98-.09-.97-.61-1.8-1.09-1.65-2.47.09-.8-.11-1.67-.31-2.47-.4-1.64-.82-2.94.92-4.45,1.66-1.44,2.57-3.77,3.75-5.74.14-.23-.04-.95-.16-.97-1.23-.22-2.59-.71-3.68-.38-.7.21-1.47,1.72-1.4,2.58.19,2.37-1.03,3.77-2.66,5.1-.75.61-1.71,1.29-1.98,2.12-.49,1.54-.68,3.22-.68,4.85,0,.55.88,1.16,1.43,1.66,1.51,1.38,1.73,3.4.18,4.27-2,1.14-1.81,2.98-1.96,4.74-.03.38.46.79.62,1.22.35.93-.77,2.03-2.28,2.34-.52.1-1.06.22-1.51.47-.55.31-.98,1.01-1.53,1.09-.5.07-1.08-.45-1.66-.73-.08.4-.14.84-.26,1.26-.49,1.64-.94,1.82-2.51,1.11-.45-.2-.96-.29-1.54-.46.43,2.38,2.47,2.7,5.91,1.08ZM339.22,139.43c-2.65.43-4.59,1.54-6.4,2.74.56,1.95,2.16,1.07,3.2,1.54-.04.22-.03.45-.1.48-1.33.6-2.66,1.21-4.03,1.71-.24.09-.72-.19-.95-.43-.48-.52-.86-1.13-1.32-1.76.15-.28.35-.65.52-.97-1.01-.45-1.92-.92-2.88-1.26-.35-.12-1.02-.09-1.18.14-1.13,1.56-2.25,3.14-3.19,4.81-.55.98-.79,2.15-1.13,3.25-.13.41-.23.88-.16,1.29.43,2.3,4.71,3.89,6.48,2.36,2-1.72,4.24-1.94,6.64-1.33.98.25,1.93.7,2.85,1.14,1.68.81,3.43.48,5.18.58,1.32.07,2.36-.28,2.82-1.36.52-1.21-.08-2.36-1.16-3.06-2.09-1.36-4.26-2.59-6.35-3.96-.46-.3-1.09-1.07-.98-1.39.5-1.41,1.25-2.73,2.12-4.53ZM369.45,162.53c-.28-1.51-.41-2.89-.82-4.17-.29-.9-.8-1.95-1.53-2.42-.82-.52-.95-1.06-1.09-1.86-.28-1.56-.7-3.09-1.09-4.63-.04-.16-.26-.28-.4-.4-1.36-1.2-2.72-2.39-4-3.51.55-.71,1.1-1.09,1.11-1.49.03-1.12.58-1.37,1.57-1.5.45-.06,1.15-.69,1.16-1.08.03-.75-.23-2.1-.58-2.17-1.23-.24-2.71-.42-3.79.06-1.71.76-3.19,2.04-4.71,3.18-1.02.77-1.02,2.35-.24,3.38.49.65.78,1.45,1.16,2.18.36.69.6,1.48,1.1,2.05,1.34,1.52,2.78,2.95,4.18,4.41-.29.49-.64.97-.87,1.49-.23.54-.33,1.13-.49,1.7-.57,1.96.04,3.14,1.97,3.8.23.08.48.17.65.32,2.11,1.82,4.41.91,6.71.65ZM321.45,101.64c-.09.03-.23.03-.27.09-.25.44-.81,1.09-.67,1.31.63,1.06,1.43,2.02,2.25,2.94.04.04,1.09-.58,1.39-1.07.53-.85-1.59-3.36-2.7-3.28ZM329.18,103.36c1.16-1.78-.77-2.59-.82-4.18-.68.53-1.44.86-1.44,1.2,0,.45.57.91.92,1.36.38.48.78.95,1.34,1.62ZM406.46,38.51c.66.74,1.33,1.89,1.66,1.8.85-.23,1.85-.83,1.5-2.05-.95.07-1.83.14-3.16.25ZM385.21,70.51c.71.93,1.28,1.67,1.92,2.5.53-1.43-.09-2.27-1.92-2.5ZM321.25,154.78c.02.24.03.49.05.73.87.13,1.8.59,2.48-.4-.03-.21-.06-.41-.09-.62-.81.1-1.62.19-2.43.29ZM294.14,109.62c-.48.69-.9,1.3-1.49,2.16,2.11-.16,2.38-.61,1.49-2.16Z"/><path class="cls-1" d="M147.61,336.36c.24-.58.48-1.49.98-2.23.18-.27.97-.12,1.89-.2v-9.6c-.67.03-1.26-.04-1.04,1.02.13.65.02,1.38-.1,2.05-.05.25-.43.44-.66.66-.17-.22-.43-.41-.48-.65-.22-1.13-.79-2.34.62-3.12-.88-1.62-.85-3.17-.53-4.9.2-1.12-.35-2.45-.78-3.6-.35-.94-.23-1.61.06-2.58,1.24-4.08,2.32-8.19,1.39-12.59-.42-1.99-.12-4.14-.08-6.22.06-3.23.18-6.46.27-9.7.01-.39-.03-.78-.04-1.18-.09-2.78-.16-5.56-.28-8.34-.02-.36-.16-.85-.42-1.05-1.74-1.34-3.52-2.64-5.3-3.92-1.67-1.2-3.46-2.27-5.03-3.59-.59-.49-.63-1.58-1.05-2.33-2.19-3.89-4.42-7.76-6.66-11.62-.17-.29-.43-.63-.72-.71-2.03-.57-2.28-2.22-2.26-3.88,0-.66.54-1.38.98-1.96.39-.51.98-.87,1.57-1.37-1.97-.91-2.43-2.31-1.61-4.09.39-.84.67-1.73,1-2.6.05-.14.06-.31.15-.41,1.21-1.29,2.36-2.65,3.67-3.82,1.02-.91,2.15-1.61,1.45-3.26-.14-.33-.05-.78,0-1.17.2-1.73-.13-3.31-1.16-4.74-.25-.35-.31-.84-.56-1.19-.44-.64-.96-1.23-1.45-1.84-.61.65-1.48,1.21-1.77,1.98-.52,1.41-.72,1.63-1.93.73-1.07-.79-2.05-1.62-3.57-1.31-.39.08-1.13-.44-1.35-.87-.54-1.06-1.24-1.71-2.45-1.86-.8-.1-1.33-.48-1.25-1.48.04-.47-.24-1.05-.54-1.46-.75-1.03-1.57-2.02-2.42-2.97-.23-.25-.66-.36-1.02-.45-.71-.19-1.43-.36-2.16-.47-3.36-.48-5.94-2.29-8.35-4.56-.53-.5-1.74-.86-2.33-.6-2.4,1.05-4.55.36-6.69-.59-2.59-1.15-5.2-2.28-7.7-3.6-1.36-.72-2.6-1.73-3.74-2.78-.75-.68-.98-1.62-.45-2.7.27-.56.38-1.39.17-1.96-.48-1.33-1.01-2.7-1.85-3.82-1.21-1.62-2.7-3.02-4.05-4.54-.21-.23-.5-.7-.41-.85.74-1.21-.35-1.59-.9-2.29-1.91-2.44-3.93-4.85-4.34-8.07-.19-1.49-1.02-2.12-2.5-2.33-.34,1.63-.33,3.09.53,4.57,1.7,2.91,3.55,5.75,4.32,9.13.25,1.11,1.08,2.08,1.63,3.12.23.43.5.86.59,1.32.04.24-.23.63-.46.8-.11.08-.54-.12-.71-.3-.96-.98-1.91-1.98-2.81-3.02-.27-.31-.63-.81-.55-1.13.55-2.23-1.09-3.04-2.47-4.05-.64-.47-1.23-1.03-1.89-1.59,1.86-1.23,2.08-1.78.8-3.26-2.22-2.56-2.7-5.72-3.35-8.81-.49-2.29-2.4-2.87-4.05-3.72-.81-.42-1.44-.64-1.41-1.7.01-.45-.32-.92-.51-1.37-3.13-7.55-3.8-15.14-.41-22.81,1.38-3.13,2.42-6.34,2.33-9.84-.03-.98.44-1.97.75-3.24-1.95-1.7-3.7-3.94-4.46-7.19,2.89.91,4.78,2.52,5.9,5.04.5,1.14.78,2.27-.43,3.19,1.17.74,2.24.33,2.27-.93.02-.65-.18-1.4-.53-1.94-.75-1.15-1.54-2.34-2.56-3.22-1.8-1.54-2.78-3.35-2.89-5.72-.04-.84-.56-1.64-.73-2.49-.09-.42.01-.93.18-1.34.15-.37.51-.65.95-1.18h-2.79c.6-1.62,1.11-2.99,1.66-4.47-1.34-.28-1.3-1.53-1.14-2.85-.16.05-.32.11-.48.16-.33.7-.67,1.41-1,2.11-.17,0-.33,0-.5,0-.41-2.19-.81-4.38-1.25-6.72-.31.26-.56.47-.83.69-.18-1.75-.44-3.41-.5-5.07-.04-1.2.73-1.63,2.05-1.19-.37-.85-.65-1.49-.94-2.15-.26.45-.47.81-.69,1.18-.4-.24-.9-.4-1.18-.74-.3-.36-.37-.9-.58-1.34-.33-.68-.71-1.32-1.03-2-.26-.56-.47-1.15-.72-1.79-.58-.37-1.34-.85-2.09-1.34-.33-.21-.63-.64-.96-.66-2.1-.17-3.39-1.59-4.71-2.94-.59-.6-1-1.38-1.56-2.18-.52-.15-1.23-.37-2.03-.61q-.64.61.17,2.4c-1.52.56-3.01,1.17-4.54,1.65-1.48.46-2.83,1.6-4.73,1.33,1.09-1.66,1.99-3.04,2.9-4.42,1.27-1.92,1.37-1.96,3.8-1.7-.08-.45-.03-1-.26-1.16-.27-.19-.9-.2-1.16-.01-1.62,1.18-3.17,2.47-4.79,3.67-.59.44-1.27.91-1.97,1.04-1.45.26-1.72.58-1.42,1.98.08.38-.08,1.02-.37,1.23-1.2.91-2.46,1.76-3.76,2.53-2.51,1.51-5.07,2.94-7.6,4.43-1,.59-1.9,1.42-2.96,1.85-1.46.58-2.97.98-4.64,1.03-1.28.03-2.52,1.08-3.82,1.56-1,.37-2.06.56-3.38.9.37-1.4,1.06-1.63,1.9-1.89,1.37-.43,2.67-1.1,4.01-1.63.93-.36,1.88-.65,2.83-.96.22-.07.5-.05.69-.17,1.96-1.21,3.97-2.36,5.85-3.68.98-.69,1.81-1.65,2.57-2.6.7-.87,1.2-1.89,1.89-2.99h-3.1c-.35-2.06-2.26-.94-3.68-1.15.52-1.82.97-3.45,1.45-5.14-.33-.06-.52-.1-.7-.13-.81-.15-2.09-.05-2.34-.5-.57-1.05-1.1-2.3-.28-3.63.31-.5.32-1.3.19-1.91-.26-1.25.03-2.13,1.02-2.99,1.4-1.21,2.6-2.64,3.96-3.9.83-.77,1.68-1.86,2.96-.43.21.23,1.11.05,1.56-.2.42-.23.67-.79.99-1.21,2.08,1.39,2.97,1.06,3.84-1.39.36-1.01.77-2,1.28-3.31-.81.28-1.52.64-2.27.76-.7.12-1.45.04-2.17-.03-.48-.05-.96-.36-1.42-.32-1.1.08-2.33.06-2.62-1.08-.22-.87.28-1.93.52-2.89.06-.24.37-.42.55-.61-.05-.16-.06-.26-.12-.34-1.25-1.84-1.31-1.97.81-2.83,1.83-.74,3.77-1.27,5.72-1.63,1.35-.25,1.55.21,1.06,1.48-.11.3-.12.93.02,1,.77.37,1.58.77,2.4.83.55.04,1.14-.47,1.84-.78-1.16-1.05-.95-2.11-.05-3.25-1.46-.58-1.55-1.45-1.2-2.91.29-1.22-.13-2.74-.59-3.99-.64-1.73.7-2.4,1.43-3.41.61-.86,1.38-.4,2.13-.13,1.8.65,3.25-.19,4.65-1.19,1.32-.95,2.65-1.88,3.99-2.8.28-.19.63-.43.93-.42,1.81.09,3.45-.11,4.73-1.67.23-.28,1.18.05,1.8.05.85,0,1.82.21,2.54-.12,2.16-.98,2.91-.72,3.59,1.59.09.3.24.82.38.83,1.81.11,2.09,1.24,2.12,2.77.02.98.53,1.59,1.79,1.26.46-.12,1.25.33,1.65.75,1.76,1.9,3.68,3.45,6.31,3.96.47.09.93.47,1.29.81.84.8,1.5,1.84,2.45,2.46,1.24.8,1.96,1.81,2.47,3.17.35.93,1.12,1.7,1.46,2.18,1.79-.88,3.17-1.55,4.69-2.29.23.64.37,1.03.54,1.49.71-.21,1.41-.41,2.11-.61,1.28-.37,2.55-.78,3.83-1.11,1.06-.27,2.06-.31,1.87,1.71,1.44-.73,2.57-1.31,3.82-1.95v4.96c1.21-.69,2.11-1.2,3.17-1.8v2.32c2.28-.96,3.7.03,4.76,1.8,1.05,1.77,2.66,2.71,4.58,3.23,1.28-1.82,1.24-1.95-.84-2.75-1.5-.58-2.22-2.56-1.34-3.93.24-.37.89-.71,1.31-.67,1.54.16,3.07.46,4.58.78.88.18,1.74.48,2.76.77-.57-1.8-1.76-2.74-3.23-2.9-1.07-.12-2.13-.36-3.2-.51-1.04-.15-1.37-.78-1.36-1.75,0-1.07.7-1.3,1.55-1.4.76-.09,1.51-.17,2.27-.26,0-.13,0-.25,0-.38-.45-.08-.98-.04-1.35-.26-.56-.33-1.3-.77-1.45-1.3-.13-.46.32-1.25.74-1.67,1.41-1.41,2.94-2.68,4.92-3.26.19-.06.38-.14.43-.39-1.63.28-3.13.42-4.52,1.52-1.39,1.11-3.07,1.83-4.09,3.41-.15.23-.6.33-.93.36-.89.09-1.79.06-2.67.19-.82.13-1.01-.19-1.06-.94-.08-1.14-.31-2.26-.47-3.39-.13,0-.25,0-.38-.01.18-.22.33-.46.53-.65,2.14-2,4.31-3.96,6.41-6,.38-.37.62-1.03.66-1.57.08-1.16.71-1.51,1.74-1.55,1.8-.07,3.63-.41,4.96,1.39.32.44,1.1.69,1.69.76,1.37.15,1.8.99,1.97,2.17.2,1.36-.38,2.85.7,4.09.13.16-.13.72-.3,1.06-.23.46-.55.87-.78,1.59,1.39-1.19,2.65-1.47,3.5.25.22.45-.13,1.18-.25,1.99.31.04.96.12,1.72.21.25-.72.48-1.39.71-2.05.16-.04.32-.08.48-.12.21.71.59,1.41.6,2.12.01.76-.32,1.52-.5,2.29-.17.74-.34,1.49-.52,2.23.18.07.36.14.55.21.22-.32.52-.61.65-.96.54-1.48,1.05-2.97,1.55-4.46.82-2.44,1.07-2.56,3.42-1.62.2-2.22,1.07-2.76,3-1.86.97.45,1.18,1.31.5,2.15-.25.3-.54.6-.88.79-2.67,1.5-3.31,4.08-3.75,6.81-.08.52-.44.98-.55,1.5-.15.7-.44,1.54-.2,2.13.52,1.24,1.29,2.39,2.06,3.51.54.78.76,1.49.14,2.28-.63.8-1.19.23-1.79-.09-.25-.14-.72-.22-.89-.08-.18.15-.2.6-.16.9.26,1.79-.21,2.3-1.99,2.37-2.36.09-3.7-1.41-4.88-2.97-1.65.45-3.16.95-4.72,1.25-1.54.29-3.13.37-4.76.55.26,1.46-.14,2.57-1.94,2.67.85,1.82,3.07,2.85,5.19,2.43,1.98-.38,2.17-.28,2.89,1.67.2.55.34,1.13.47,1.55,1.41-1.47,2.87-2.99,4.26-4.43-.49.03-1.22.08-1.95.12-.1-.1-.21-.2-.31-.3.37-.46.67-1.24,1.12-1.33.84-.17,1.96-.25,2.6.18.84.56,1.27,1.72,2,2.5,1.06,1.12,2.07,2.43,3.39,3.13,1.72.91,3.64,1.17,5.2-.72.49-.59,1.39-.84,2.21-1.31-.58-.72-1.16-1.43-1.87-2.32,1.34-.9,2.62-1.77,3.85-2.6.84.65,1.6,1.23,2.41,1.86-.07,2.5-1,3.56-3.72,4.01.86.89.87,1.75.11,2.7-.25.32-.15.92-.04,1.48,2.7-1.92,4.6-4.46,6.02-7.38-2.82-2.52-3.08-5.11-.4-7.86,2.57-2.64,4.39-5.56,5.56-9.07,1.27-3.85,4.72-4.66,8.04-2.29.33.23.88.24,1.31.21,1.18-.07,2.36-.25,3.42,1.19-3.55,1.55-5.22,4.41-5.47,8.09-.03.49.47,1.01.72,1.52.17-.07.34-.14.5-.21-.11-.49-.28-.97-.33-1.46-.04-.36-.05-.96.13-1.05,1.17-.59.91-1.72,1.28-2.63.45-1.11,1.57-2.09,2.63-2.75.91-.57,2.14-.66,3.25-.88.97-.2,1.91-.16,2.24,1.08,1.49-1.48,2.8-.04,3.99.37,1.69.58,1.33,2.4,1.59,3.91-.56.12-1,.22-1.79.39,2.1,1.16,3.02,2.72,2.3,5.13.86.18,1.83.2,2.62.6.57.29,1.2,1.04,1.26,1.64.14,1.32.77,1.92,1.91,2.48,1.61.78,1.67,2.58,2,4.06.18.8-.15,1.72-.26,2.71h-1.36c-.32.66-.63,1.31-.89,1.84.92,2.29,4.03,2.76,4.44,5.48.87.58,1.9,1.06,2.62,1.82.33.35.32,1.53-.01,1.87-.89.93-2.05,1.61-3.09,2.42-.26.2-.46.47-.67.73-.33.4-.64.81-.97,1.22-.49-.5-1.12-.93-1.45-1.53-.66-1.21-1.16-2.51-1.81-3.96-.81.88-1.34,1.44-1.95,2.09.29,1.38.59,2.89,2.1,3.94.89.62.76,4.47.18,5.44-.37.63-.51,1.39-.69,1.93-1.42-1.27-2.98-2.66-4.53-4.05-.14.13-.29.25-.43.38.22.37.42.74.65,1.1.59.9,1.24,1.77,1.75,2.72.17.32.09.88-.08,1.22-.07.14-.77.14-1.05-.02-1.31-.75-2.57-1.59-3.85-2.39-.52-.33-1.03-.71-1.58-.98-1.61-.81-.96-2.62-1.76-3.83-1.27-1.9-3.01-2.67-5.29-2.09-.64.16-1.48.11-2.06-.19-.96-.5-1.05-1.38-.32-2.22.87-1,1.64-1.59,3.24-.88,1.11.49,2.69-.09,4.32-.2-.96-1.92-.08-2.75,1.15-3.53.94-.6,2.1-1.23,2.54-2.14.49-1.02.58-2.45.3-3.56-.22-.89-1.04-1.93-2.42-1.58-.06.02-.15-.1-.34-.24.23-.32.47-.64.85-1.17-.77-.07-1.4-.13-2.32-.21.49-.53.81-.89,1.16-1.27-.48-1.42-1.82-2.58-1.28-4.35.06-.2-.67-.64-1.11-1.04-.73,2.44-2.24,2.97-4.18,1.8-.78-.47-1.72-.66-2.6-.95-1.36-.44-2.73-.88-4.11-1.28-.5-.15-1.04-.18-1.7-.29.29-.18.55-.35,1.07-.68-.66-.19-1.17-.23-1.53-.48-.57-.39-1.26-.83-1.49-1.42-.22-.53.1-1.28.19-1.93.54.09,1.08.17,1.62.26.22.04.45.07.67.11.08-.12.16-.25.24-.37-.46-.3-.88-.71-1.38-.87-1.4-.43-1.66-1.22-.96-2.44.54-.93,1.06-1.86,1.6-2.82-1.87.17-3.32,1.75-3.44,3.9-.06,1.17.1,2.36.2,3.53.16,1.96.38,3.92-2.09,4.97.87.8,1.57,1.45,2.19,2.02-.33,1.05-.63,2-.92,2.95.09.04.18.09.27.13.78-.66,1.57-1.33,2.62-2.22v7.96c.73-.86,1.23-1.5,1.78-2.08,1.78-1.84,3.49-3.76,5.4-5.46,2.12-1.9,2.68-1.7,3.49.92.66-.32,1.32-.63,1.88-.9-.55,1.37-.99,2.75-1.67,3.99-.23.43-1.06.53-1.95.94.03.65-.09,1.59.15,2.43.33,1.18.02,2.07-1.01,2.44-1.93.69-3.92,1.51-5.91,1.61-1.71.08-2.42.77-3,2.16,1.08,1.64,2.19,3.3,3.26,4.98.13.2.19.63.07.76-.28.31-.77.77-1.02.69-.73-.24-1.6-.56-2.01-1.14-.69-.98-1.15-1.25-1.97-.2-.32.41-.84.67-1.27,1-1.73,1.32-1.92,1.27-2.48-.77-1.48.46-2.96.92-4.44,1.39-.09.03-.22.09-.23.16-.29,2.24-2.44,2.52-3.83,3.56-3,2.23-5.3,4.98-6.81,8.4-.53,1.2-.55,2.19.47,3.21,1.34,1.35,1.44,2.5.72,5.41,3.22-1.02,4.78,1.22,6.64,3.06,1.32,1.3,2.8,2.49,4.39,3.42.91.54,2.18.5,3.3.66.75.11,1.04.43.81,1.2-.46,1.55-.91,3.1-1.3,4.67-.1.39-.09.9.09,1.24.44.87.97,1.71,1.53,2.51.37.53,1.02,1.45,1.29,1.37,1.15-.36,2.29-.93,2.32-2.47.04-1.92.18-3.83.17-5.75,0-.9.35-1.31,1.14-1.64,1.13-.47,2.29-.96,3.29-1.65,2.45-1.68,3.11-5.45,1.3-7.88-.86-1.15-.75-1.87.27-2.73.67-.57,1.23-1.26,1.79-1.93.2-.24.32-.6.33-.91.01-.59-.15-1.18-.13-1.76.07-1.87,1.02-3.54,1.16-5.44.07-1.06,1.48-.89,2.52-.62,1.34.35,2.73.52,4.09.81.36.08.72.24,1.05.42.16.09.28.28.38.45,1.11,1.91,1.72,4.28,4.37,4.44-.39,1.78-.68,3.3-1.07,4.79-.44,1.69,1.07,2.31,1.85,3.23.24.29,1.68-.07,2.27-.53,1.01-.79,1.81-1.86,2.64-2.86.58-.7,1.05-1.49,1.74-2.49.47,1.81.83,3.27,1.22,4.73.54,2.02,1.13,4.03,1.61,6.06.08.36-.34.82-.46,1.25-.12.41-.36,1.03-.17,1.25,1.34,1.59,2.48,3.47,4.62,4.11,1.24.37,1.15.92.51,1.71.86.74,1.76,1.43,2.54,2.23.25.25.23.81.24,1.23,0,.28-.21.56-.24.84-.22,2.27-.92,2.99-3.24,3.33-.7.1-1.38.32-2.07.49.4.76.58,1.4.99,1.82.34.34.95.52,1.46.58.57.07,1.16-.07,1.74-.11.03.62.07,1.24.11,2.03.04.02.29.15.61.32-.28.41-.54.8-.88,1.29,1.05.51,2.05,1.1,1.14,2.38-.28.4-1.05.96-1.21.86-.58-.39-1-1.02-1.67-1.78-.42.27-1.16.77-1.91,1.26-.08-.08-.15-.16-.23-.24.12-.37.25-.75.46-1.4-2.19-.19-4.28-.37-6.64-.57.98-1.55,1.8-2.84,2.8-4.43-2.22-.18-4.33-.35-6.6-.53.08.57.14.91.22,1.48-.62-.12-1.19-.09-1.61-.34-1.36-.81-2.59-.39-3.73.34-1.58,1.02-3.09,2.16-4.62,3.26.07.1.14.2.21.3,1.38-.58,2.74-1.26,4.17-1.7.86-.27,1.87-.35,2.74-.18,1.38.27,1.71,1.8.63,2.7-.85.7-.98,1.28-.3,2.22.38.53.19,1.46.57,2,1.14,1.63,3.59,1.78,5.27.42.37-.3.64-.74,1.12-1.31.33.9.55,1.52.84,2.32-1.83.86-3.59,1.69-5.36,2.52-1.34.63-2.65,1.32-4.03,1.84-.55.21-1.24.04-1.86.04.02-.68.03-1.36.08-2.04.01-.16.16-.31.5-.88-2.7,1.09-5.09,1.88-7.3,2.99-2.05,1.03-2.45,2.58-1.69,5.21-5.68.45-8.51,4.36-10.82,9.06-.38-.25-.74-.49-1.42-.93.07,1.24.02,2.21.2,3.13.37,1.88-.24,3.31-1.78,4.35-1.3.89-2.66,1.69-3.99,2.53-.75.48-1.51.94-2.23,1.45-3.28,2.32-4.01,4.23-3.01,8.14.26,1.02,1.12,1.98,1.11,2.96-.03,1.62-.38,3.28-.91,4.82-.33.98-1.3.67-1.71-.08-1.1-2.01-2.76-3.84-2.11-6.48.34-1.38-1.7-2.97-3.11-2.66-.41.09-.99.01-1.33-.22-2.11-1.49-4.44-.96-6.71-.77-.35.03-.79.66-.96,1.1-.51,1.32-2.06,1.89-3.2,1.11-1.93-1.33-4.88-1.27-6.8.09-.56.39-1.16.89-1.79.98-2.13.33-2.76,1.79-3.1,3.61-.37,2-.99,3.98-1.17,6-.19,2.08-.31,4.28.14,6.29.58,2.59,2.33,4.59,4.84,5.71.46.21,1.14-.05,1.72-.12,1.05-.13,2.1-.24,3.14-.42.35-.06.8-.24.96-.51.65-1.08,1.29-2.19,1.76-3.36.43-1.06.92-1.74,2.2-1.79,1.26-.05,2.51-.48,3.77-.53,1.16-.05,1.55.71.82,1.61-.96,1.17-1.42,2.44-1.46,3.91,0,.15,0,.38-.08.42-1.98,1.18-.99,3.63-2.45,5.39.91.06,1.6.14,2.29.14,1.67.02,3.34-.11,4.99.04,2.61.24,3.27,1.25,2.63,3.75-.31,1.23-.68,2.45-.98,3.68-.52,2.12.84,3.48,2.17,4.7,1.1,1.02,2.44,1.3,3.94.47,2.01-1.11,3.4-.85,5.12.67.29.26.6.49,1.16.93.9-1.38,1.61-2.83,2.67-3.93.78-.81,2.02-1.19,3.07-1.73,1.03-.53,2.06-1.08,3.13-1.51.53-.21,1.16-.16,1.75-.22-.17.41-.35.82-.49,1.23-.1.3-.15.61-.23.92.31.04.71.21.91.08.54-.35,1.12-.74,1.46-1.27.47-.71.75-.97,1.4-.18.31.37.87.55,1.32.8.42.23,1.12.34,1.23.66.4,1.16,1.23,1.02,2.14,1.03.95.02,1.9.28,2.85.35.56.04,1.39.15,1.66-.16,1.24-1.44,2.74-.55,4.31-.73-.21.45-.34.74-.54,1.16.53.28,1.19.42,1.53.84,1.48,1.81,3.95,2.22,5.47,3.95.63.71,1.39,1.31,2.08,1.97,1.06,1.02,2.36,1.06,3.72,1.04,2.85-.06,5.45.77,7.25,2.99,1.34,1.64,2.31,3.61,3.29,5.5.45.86-.37,2.09-1.88,3.14,1.57.87,4.48-1.68,4.78,1.85,2.2-1.18,6.46.33,7.7,2.53,3.44.33,6.86-.08,9.92,1.64,1.26.71,2.31,1.79,3.47,2.69.23.18.51.44.76.43,2.19-.11,2.78,1.39,3.27,3.09.53,1.83.27,3.52-.78,5.07-.44.65-1.08,1.15-1.55,1.78-.85,1.12-1.65,2.29-2.46,3.44-.28.4-.46.99-.84,1.18-1.57.78-1.42,2.09-1.4,3.52.04,2.49-.26,4.92-.7,7.41-.43,2.45-1.92,4.34-2.39,6.71-.18.89-2.03,1.81-3.25,2.05-1.56.31-3.04.15-4.36,1.53-1.29,1.34-3.13,2.14-4.64,3.29-1.28.97-1.6,2.38-1.08,3.86.43,1.21.13,2.17-.49,3.2-.86,1.43-1.6,2.93-2.45,4.51-.29-.18-.58-.36-1.11-.68-.62,1.37-1.17,2.71-1.81,4-.83,1.7-1.54,3.5-2.65,5-1.08,1.46-2.83,1.02-4.39.67-.75-.17-1.5-.36-2.43-.38,1.13.87,1.79,1.83,1.43,3.23-.03.11.18.36.34.44,1.19.6.88,1.46.48,2.38-1.1,2.53-3.27,3.78-6.48,3.71-.63-.01-1.26-.06-2.08-.1,0,1.16-.03,2.23,0,3.29.07,1.93-.92,2.65-2.79,1.98-.57-.2-1.15-.37-1.77-.57-.19,2.62.34,3.17,2.6,2.89.35.87.85,1.54-.67,2.08-1.07.38-1.73,1.56-1.4,2.94.28,1.16,0,2.01-1.15,2.71-.79.48-1.94,1.6-1.8,2.13.25.92,1.24,1.84,2.16,2.33,1.66.88,2.11,1.96.92,3.42-.81,1-1.69,1.92-1.62,3.35.01.25-.21.55-.38.78-1.64,2.15-1.67,2.95-.18,5.18.16.24.3.49.5.82-.5.21-.91.38-1.32.55,1.59.18,1.84,1.51,2.61,2.48.95,1.2,2.52,1.93,3.86,2.8.44.29.98.4,1.85.75-1.36.69-2.47,1.23-3.55,1.81-.49.26-.89.73-1.39.9-1.3.43-2.13-.07-2.65-1.58-.41.27-.79.52-1.28.84-.21-.2-.44-.43-.68-.64-1.09-.99-1.76-2.29-3.75-2.26-1.16.01-2.33-1.57-3.38-2.68.53.09,1.07.18,1.9.31-1.18-1.37-2.16-2.51-3.12-3.63,1.79-.39,1.07-1.55.35-2.82-.27.69-.51,1.31-.76,1.92-.15-.03-.29-.07-.44-.1-.03-.51-.07-1.02-.07-1.53,0-1.09-.25-1.86-1.12-2.76-.9-.93-1.01-2.63-1.4-4.01-.05-.17.26-.6.48-.67,1.22-.41,1.22-1.59.92-2.28-.22-.52-1.39-.63-2.43-1.04ZM160.35,55.38c1.72.89,3.07.49,4.51-.77-2.84,1.01-3.55-.44-3.6-2.69-.31,1.17-.61,2.34-.91,3.46ZM56.92,100.31c.25-1.08.47-2,.68-2.93-.13-.04-.26-.08-.39-.12-.53.85-1.05,1.7-1.63,2.63.48.15.85.26,1.34.41ZM171.37,122.88c-1.34-1.22-2.37-.68-3.4,0h3.4Z"/><path class="cls-1" d="M194.74,90.82c-.63.03-1.05.05-1.31.06-.5-2.09-1.06-4.07-1.4-6.08-.09-.55.45-1.21.76-1.95-.63-1.32.17-3.9,1.65-4.96.38-.27.66-.67,1.21-1.24,2.76.22,2.72-2.69,3.99-4.53-1.05-.37-2.06-.73-3.25-1.15.1.36.11.56.21.69.41.57,1.26,1.17.29,1.82-.88.59-2.09.88-2.81-.11-.48-.66-.66-1.74-.54-2.57.13-.91.73-1.77,1.19-2.62.1-.18.51-.27.77-.26.39.02.76.24,1.15.26.53.03,1.07-.06,1.61-.09-.2-.48-.39-.97-.67-1.66.03-.4.1-1.09.16-1.78-.13-.05-.26-.1-.4-.15-.35.32-.66.78-1.07.91-.48.16-1.21.24-1.55-.02-.29-.22-.36-1-.25-1.46.27-1.1.7-2.17,1.1-3.24.18-.49.44-.96.77-1.65-.08-1.89-.11-4.12-.28-6.34-.08-1.03-.46-2.04-.64-3.07-.11-.63-.28-1.33-.11-1.91.28-.95.06-1.56-.63-2.22-1.62-1.55-3.53-2.23-5.74-2.33-1.47-.07-2.94-.3-4.38-.59-1.26-.26-1.88-1.09-1.82-2.47.03-.63-.2-1.34-.52-1.89-.63-1.09-.55-1.54.69-1.92.88-.27,1.79-.42,2.99-.69-.47-.29-.68-.44-.91-.56-1.56-.78-2.43-2.02-2.31-3.78.12-1.87,1.47-3.6,3.26-3.96,1.18-.24,2.45-.04,3.66-.18,1.44-.16,3.01-.17,4.25-.78,2.09-1.04,2.05-2.64.17-3.98-.16-.11-.29-.25-.5-.45,1.34-2.69,3.48-4.22,6.41-4.67,2.72-.41,2.66-.4,3.47-2.99.18-.57.93-1.2,1.53-1.35,2.76-.71,5.56-1.25,8.69-1.93-.09,1.44-.18,2.71-.28,4.28.5-1.07.89-1.89,1.28-2.72.1-.01.19-.03.29-.04.09.91.16,1.83.28,2.74.04.3.16.76.36.83.25.09.79-.05.9-.26.38-.71.68-1.48.92-2.25.23-.75.36-1.54.53-2.31.17-.02.34-.05.5-.07,1.29,2.04,2.59,4.09,3.88,6.13.09-.02.19-.03.28-.05-.15-1.92-.29-3.83-.42-5.47,1.03-.55,1.88-1.01,2.72-1.46-.41-.61-.64-.96-.87-1.32.4-.07.8-.13,1.41-.24,1.38-1.72,1.87-1.81,4.5-.66,3.83-3.61,11.58-3.28,14.89.8-2.77.35-5.42.69-8.08,1.02,0,.07.01.14.02.21,2.64,0,5.27-.02,7.91.01.58,0,1.15.18,1.73.28-.15.6-.29,1.19-.46,1.88,1.54-.69,2.81.3,4.1,1.28.98.74.96,1.48-.05,2.09-2.25,1.37-4.81,1.69-7.26,1.1-2.79-.67-5,.49-7.33,1.51-.09.04-.13.23-.36.68.88-.28,1.53-.41,2.1-.69,1.91-.91,3.88-1.11,5.9-.52.5.15.93.53,1.4.81-.4.38-.79.77-1.21,1.13-.14.12-.33.17-.55.27,2.01.77,2.91.47,3.95-1.01.27-.38,1.08-.54,1.62-.5.22.02.62.86.55,1.25-.23,1.23-.72,2.32-2.01,2.9-.62.28-1.12.81-1.51,1.43,2.57-1.18,5.13-2.41,7.73-3.54,1.88-.81,4.2-.23,5.43,1.18.64.72.91,1.48.04,2.15-1.76,1.36-3.57,2.66-5.46,4.06-.18.6-.33,1.55-.73,2.4-1.49,3.16-3.04,6.3-4.63,9.42-.42.82-.47,1.46,0,2.32,1.25,2.29,1.47,4.73.93,7.11-.71-.91-1.42-1.82-2.13-2.74-.65.52-1.3,1.04-2.07,1.66,2.11,1.14,2.35,2.72,2.13,4.55-.19,1.61-.22,3.24-.35,5.16-.55.16-1.57.46-2.4.71.31.82.92,2.12.81,2.19-1.05.61-2.23,1.01-3.25,1.43.24,1.07.52,2.36.81,3.65-.14.09-.28.18-.43.27-.63-.27-1.26-.53-1.76-.74.83,2.46,1.67,4.97,2.5,7.44-2.1.92-3.58.23-5.05-2.05-.61.88-1.2,1.74-1.87,2.72.84.21,1.64.41,2.44.61.76.19,1.52.38,2.58.64-.98.65-1.69,1.24-2.49,1.66-5.27,2.78-10.56,5.54-15.85,8.28-2.67,1.38-5.36,2.72-8.06,4.05-1.84.9-3.18,2.25-4.08,4.11-1.83,3.82-3.77,7.59-5.58,11.42-.48,1.01-1.06,1.2-1.96.78-.62-.29-1.23-.63-1.8-1-.62-.4-1.13-1.05-1.79-1.29-3.09-1.1-3.85-3.56-4.04-6.45-.02-.34-.39-.66-.61-.98-1.08-1.61-1-2.85.49-4.38Z"/><path class="cls-1" d="M555.65,287.21c-.07,2.3-.02,4.73-.26,7.13-.14,1.38-.67,2.74-1.21,4.04-.88,2.11-.96,4.56-2.63,6.34-.06.07-.05.22-.12.26-2.86,1.91-3.7,5.27-5.59,7.87-1,1.38-1.45,3.19-1.96,4.87-.3.97-.74,1.74-1.73,1.7-1.99-.09-3.46.85-4.93,2-1.63,1.27-1.94,1.16-2.89-.71-.19-.37-.29-.78-.47-1.28-.4.37-.73.72-1.11,1.01-1.05.79-2.06,1.33-3.22.05-.43-.47-1.18-.67-1.82-.93-1.83-.73-2.78-2.39-2.43-4.34.35-1.99-.07-2.97-1.51-3.46.08-.72.16-1.45.25-2.22-.9.49-1.65.9-2.41,1.31l-.16-.34c.84-1.56,1.67-3.12,2.51-4.68-.14-.09-.27-.18-.41-.27-1.15,1.1-2.3,2.22-3.47,3.3-.27.24-.64.37-.97.55-.16-.33-.36-.64-.46-.98-.46-1.53-.88-3.07-1.33-4.6-.05-.18-.19-.39-.34-.46-3.1-1.41-6.11-3.16-9.75-1.63-1.19.5-2.62.4-3.83.87-1.74.69-3.5,1.48-5.02,2.55-1,.7-1.92,1.3-3.07,1.02-2.94-.71-5.36.53-7.81,1.81-2.12,1.1-4.28.58-5.51-1.43-.25-.42-.14-1.39.19-1.78,1.31-1.56,1.62-3.27,1.32-5.22-.43-2.81-.73-5.64-1.13-8.45-.12-.85-.41-1.67-.63-2.55h.47c-.17-.38-.33-.73-.65-1.46.59.38.86.55,1.41.91-.12-.64-.15-1.08-.29-1.48-.47-1.4-.63-2.78.17-4.13.15-.25.28-.55.29-.83.03-1.3.16-2.34,1.71-2.94,1.88-.73,3.39-2.15,5.59-2.42,2.2-.28,4.52-.86,6.42-1.94,1.33-.75,2.11-2.54,3.05-3.92.5-.73.84-1.58,1.33-2.53.7.65,1.07,1,1.16,1.08.63-.55,1.14-.98,1.62-1.43.17-.16.38-.34.43-.54.56-2.37,2.44-3.36,4.44-4.12.5-.19,1.57.1,1.84.52.84,1.31,1.98,1.21,3.12,1.17.93-3.31,2.66-5.61,6.53-5.6-.35-.73-.55-1.14-.89-1.84.75.23,1.29.29,1.72.53,1.9,1.08,3.92,1.48,6.09,1.28,1.31-.12,1.32.54.8,1.43-.53.9-1.09,1.78-1.69,2.63-1.06,1.51-.2,2.54.92,3.33,1.3.92,2.76,1.62,4.13,2.45.27.16.43.51.7.68.63.38,1.35,1.04,1.94.95.58-.09,1.32-.87,1.51-1.49.55-1.82.83-3.72,1.26-5.57.45-1.91.93-3.82,1.46-5.71.08-.3.49-.51.75-.76.19.25.48.48.57.76.46,1.5.82,3.03,1.31,4.52.15.47.56,1.11.95,1.19,1.26.26,1.64,1.06,1.82,2.18.4,2.45.81,4.89,1.31,7.32.09.45.55.95.97,1.17,2.29,1.21,3.62,3.05,4.05,5.59.04.24.09.61.24.67,2.66,1.12,2.17,4.4,4.12,6,.44.36.86.72,1.25,1.04Z"/><path class="cls-1" d="M530.35,251.33c.83-.99,1.39-1.65,2-2.38-.5-2.31-1.82-3.97-4.45-4.49-.99-.2-1.98-.63-2.87-1.12-1.06-.59-2.02-1.26-3.12.13-.51-.9-.94-1.64-1.44-2.52.77-.28,1.52-.54,1.92-.69-1.39-.72-2.91-1.5-4.48-2.31,1.7-1.83,3.84-2.28,5.63-1.14.44.28.54,1.14.75,1.75.23.66.29,1.42.66,1.98.73,1.09,1.53,1.36,2.52.08.65-.83,1.56-1.51,2.48-2.06.46-.27,1.25-.25,1.79-.07,3.27,1.09,6.53,2.19,9.75,3.42,1.81.69,3.67,1.34,4.6,3.4.27.59,1.38.82,2.11,1.19.89.45,1.88.82.56,1.96-.19.16-.1.97.13,1.22,1.29,1.39,2.69,2.68,4.01,4.04.52.54.92,1.18,1.24,1.91-2.73-.64-5.77-.29-7.39-3.36-.47-.88-1.67-1.47-2.66-1.96-1.16-.57-2.88.49-3.22,1.76-.11.41-.49,1.11-.67,1.08-1.56-.22-3.33-.2-4.59-.99-1.08-.68-1.88-1.24-3.16-.86-.48.14-1.03.02-2.08.02Z"/><path class="cls-1" d="M495.87,225.41c-3.22,2.66-3.67,3.81-.85,8.14-3.25,2.27-4.05,5.71-4.66,9.41-1.2,0-2.53,1.04-3.75-.42-.3-.36-1.11-.68-1.47-.53-1.61.69-2.94-.36-4.39-.55-.41-.05-1.02-.21-1.14-.5-.9-2.08-1.86-4.15-2.49-6.32-.48-1.66.93-2.8,2.56-2.24.93.32,1.38.12,1.84-.79.34-.66,1.14-1.09,1.75-1.6.14-.12.41-.09.54-.22,2.16-2.08,4.47-4.03,6.4-6.3,1.29-1.53,1.67-1.75,2.88-.08.33.45.85.78,1.32,1.12.42.31.9.55,1.47.89Z"/><path class="cls-1" d="M346.22,50.03c.83-1.36,1.45-2.45,2.14-3.49,1.24-1.88,2.32-3.89,4.94-4.29,1.46-.22,2.65-.98,3.26-2.63.29-.77,1.41-1.52,2.26-1.68.52-.1,1.43.84,1.85,1.51.61.99.35,1.99-.72,2.66-3.09,1.92-5.07,4.74-7.04,7.76-1.16,1.77-1.54,3.47-1.94,5.34-.22,1.04-.8,2.03-.9,3.08-.37,3.54.33,6.67,3.75,8.62.36.21.49.82.73,1.24-.43.23-.87.67-1.28.65-1.06-.05-2.16-.18-3.16-.52-.6-.21-1.17-.8-1.5-1.36-.48-.81-.95-1.2-1.98-1.1-.57.05-1.54-.41-1.73-.88-.22-.54.19-1.36.37-2.04.13-.47.61-1.17.46-1.35-1.16-1.33-.18-2.47.19-3.67.1-.31.35-.8.24-.93-1.12-1.19-.15-2.13.22-3.21.48-1.36.69-2.79-.14-3.71Z"/><path class="cls-1" d="M523.75,141.89c1.35,2.37,3.38,4.25,3.1,7.15-.02.19.08.42,0,.59-1.16,2.64-.15,5.16.28,7.74.11.65-.45,1.41-.81,2.42-.57-.65-.81-.92-1.05-1.19-.12.08-.26.12-.28.19-.3,1.38-1.57,1.59-2.55,1.69-1.26.13-1.76.81-2.32,1.73-.32.52-.9.89-1.36,1.32-.5-.68-1.02-1.35-1.49-2.05-.1-.14.02-.43.04-.76-.98.22-1.19.54-.68,1.35.78,1.23.61,1.47-.9,1.86-.3.08-.55.35-.81.55-.34.26-.66.53-.99.8-.27-.45-.7-.9-.74-1.37-.03-.35.41-.81.75-1.09.29-.24.73-.29,1.11-.42-.03-.16-.07-.32-.1-.48-.62.11-1.28.12-1.85.34-.61.23-1.14.66-1.83,1.08,2.18,1.55,1.29,3.71,1.04,5.73-.05.37-.6.95-.91.94-.42-.01-1.01-.42-1.18-.81-.36-.81-.5-1.73-.77-2.76-1.15-.62-1.24-1.18-.33-2.37.79-1.03,1.58-2.08,2.23-3.2,1-1.7,2.61-2.25,4.39-2.57.7-.13,1.77-.09,2.01-.51.52-.89.62-2.03.87-3.08.09-.38.12-.76.22-1.37,1.11,1.43,2.15,1.44,2.8.14.95-1.91,1.62-3.92,1.2-6.11-.19-.99-.53-1.95-.64-2.94-.13-1.12.36-1.98,1.54-2.56Z"/><path class="cls-1" d="M470.02,239.68c1.58-1.09,1.62-1.07,2.89,1.37-2.17,1.28-1.03,3.58-1.67,5.42-1.38.25-2.67.43-3.85-.82-1.45-1.53-3.09-2.89-4.62-4.35-.35-.33-.67-.74-.9-1.17-1.24-2.32-2.27-4.79-3.74-6.95-1.27-1.88-3.03-3.43-4.58-5.12-.66-.72-1.46-1.34-1.95-2.16-.43-.71-.08-1.27.88-1.03,1.82.44,3.44.89,4.96,2.42,2.3,2.32,5.29,3.97,7.95,5.95,1.08.8,2.19,1.64,2.01,3.27-.03.31.06.73.26.94.74.77,1.56,1.46,2.37,2.21Z"/><path class="cls-1" d="M275.65,131.24c-.69.31-1.35.77-2.07.9-1.64.28-3.33.31-4.97.62-1.26.24-2.45.77-3.68,1.16-.22.07-.45.07-.91-.21.99-.98,1.97-1.96,3.03-3.01-.61-.27-1.44-.64-2.63-1.16,1.96-.86,1.63-2.29,1.17-3.81,1.21.03,2.47-.05,2.18-1.4-.22-1.03-.43-2.45-2.18-2.45-.35,0-.7-.95-.9-1.56-.78-.25-1.32-.48-1.2-1.73.11-1.13-.43-2.31-.7-3.55.33-.38.96-.83,1.21-1.44.68-1.66,1.89-1.75,3.55-1.41-.31.63-.57,1.17-.94,1.95.63.05,1.12.11,1.62.13,1.04.05,1.47.48,1.03,1.52-.11.27-.18.58-.34.82-.75,1.09-.87,1.97.52,2.71.44.24.6.97.93,1.46.41.59.89,1.14,1.27,1.75.59.94,1.08,1.95,1.7,2.87.26.39.69.78,1.13.9,1.52.41,1.82,1.17,1.09,2.62-.28.54-.25,1.24-.36,1.86.16.16.31.32.47.48Z"/><path class="cls-1" d="M153.24,42.88c-1.34.34-3.1-.19-3.41-1.15-.46-1.42-.05-2.78,1.02-3.79.76-.72,1-1.46,1.01-2.46,0-.89-.28-1.33-1.1-1.63-1.32-.48-2.44-2.34-2.16-3.66.22-1.03,1.14-1.39,1.93-.9.87.53,1.49,1.45,2.25,2.18.42.4.85.98,1.34,1.05.93.14,1.42.41,1.47,1.43.03.53.41,1.04.67,1.63-.75.17-1.38.31-1.99.45.5,2.07,2.17,2.77,3.64,3.63.29.17.75.07,1.13.07,1.85.02,3.7-.04,5.54.08,1.48.09,2.57,2.09,2.03,3.52-.98,2.6-3.01,3.34-5.6,2.42-1.69-.6-3.55-.7-5.31-1.1-1.01-.23-2.42.04-2.46-1.76Z"/><path class="cls-1" d="M128.51,31.68c.41-1.79.52-3.24,1.1-4.46.37-.79,1.42-1.26,2.2-1.83.05-.03.65.44.63.63-.12.91-.46,1.8-.54,2.71-.05.56.18,1.18.41,1.72.04.1.7-.1,1.08-.11.31,0,.81-.04.91.13.22.38.43.93.33,1.32-.65,2.45-3.88,3.95-6.33,3.35-1.24-.3-2.66.14-3.99.27-1.3.12-2.6.41-3.88.35-.46-.02-.88-.84-1.32-1.29.44-.35.84-.79,1.33-1.02.51-.23,1.12-.26,1.7-.64-.7-.1-1.44-.08-2.09-.32-1.06-.38-2.16-.8-3.06-1.45-.68-.49-.19-1.59.71-1.72.48-.07.97-.01,1.62-.01-.25-.39-.46-.7-.77-1.18,1.34-1.08,2.63-2.23,4.03-3.21.87-.61,1.42-.28,2.24.63,1.36,1.52,1.32,3.14,1.51,4.9.05.45,1.33.77,2.19,1.23Z"/><path class="cls-1" d="M236.28,92.2c1.09-.49,1.89-.86,2.7-1.23-.04-.2-.08-.39-.12-.59-.82-.06-1.63-.13-2.44-.19.12-1.46,1.2-2.82,2.49-2.77,1.67.06,1.73,1.57,2.01,2.81.13.05.27.09.4.14.32-.58.64-1.16.84-1.52,1.99-.39,3.94-.68,5.84-1.18.94-.25,2.37.2,2.77,1.16.27.64.63,1.24,1.09,2.13-.25.67-.39,1.86-1.05,2.55-.84.89-2.07,1.44-3.19,2.03-2.25,1.18-4.51,2.28-7.03.51-.45-.32-1.25-.12-1.87-.22-.64-.1-1.04-.38-.55-1.08.79-1.11.65-1.58-.6-2.05-.34-.13-.68-.26-1.29-.49Z"/><path class="cls-1" d="M382.67,16.68c-.15-.81-.32-1.72-.48-2.61-.59,1-1.05,1.77-1.5,2.53-.8-.47-1.59-.95-2.78-1.66.98-.45,1.48-.67,1.98-.9-.04-.06-.06-.17-.13-.21-.71-.44-1.88-.72-2.07-1.32-.63-2.02-.81-4.15.59-6.02.14-.18.59-.35.74-.26,1.22.7,2.57,1.29,3.53,2.26.8.81,1.13,2.09,1.62,3.08,1.37.06,2.72-.12,3.91.24,1.68.5,2.05,2.24,2.66,3.68.16.38.39.74.58,1.11.24.48.75,1.29.64,1.39-.55.48-1.26,1.07-1.93,1.08-1.41.03-2.84-.25-4.24-.47-.41-.06-.8-.33-1.17-.56-.63-.4-1.23-.86-1.97-1.37Z"/><path class="cls-1" d="M453.7,15.07c.65-.86,1.01-1.81,1.56-1.94.92-.21,1.84.25,1.91,1.49.01.19.11.38.2.55.19.33.4.64.95.85-.18-.83-.36-1.67-.54-2.49,1.98-.78,4.2.26,4.58,2.14.27,1.34-1.07,2.89-2.34,3.35-.96.35-1.92,1.16-2.49,2.03-.79,1.21-1.82,1-2.7.67-2.26-.86-3.91-2.47-4.77-4.79-.12-.32-.35-.69-.28-.97.2-.74.37-1.64.89-2.08.28-.23,1.27.35,1.91.62.48.2.92.47,1.1.57Z"/><path class="cls-1" d="M133.47,48.01c.08-.66.32-1.35.21-1.98-.26-1.38.61-2.93,1.95-3.11,1-.14,2.01-.23,3.02-.3.37-.03.74.06,1.33.12-.38.43-.61.69-.84.95,1.49.96.99,1.99-1.7,3.54,1.9,2.93.93,5.65-2.43,6.9-.45.17-.88.42-1.28.7-.98.7-1.59.5-1.81-.72-.29-1.64-.58-3.18-1.81-4.55-.45-.49,0-2.05.4-2.95.27-.59,1.19-.66,1.65.21.22.42.46.83.69,1.24.2-.01.41-.03.61-.04Z"/><path class="cls-1" d="M500.57,239.45c1,1.55,1.89,2.73,2.54,4.03.29.58.16,1.41.1,2.12,0,.11-.72.36-.92.24-1.39-.86-2.62-1.89-3.01-3.59-.07-.3-.18-.6-.27-.9-.14,0-.28-.01-.42-.02-.15,1.22-.36,2.45-.43,3.67-.04.79-.18,1.53-1.09,1.24-.38-.12-.8-1.05-.72-1.54.14-.91.18-1.6-.62-2.23-.29-.23-.54-.8-.46-1.13.35-1.42.81-2.81,1.25-4.21.12-.37.34-.72.42-1.09.43-2.01,1.9-2.99,3.88-2.63,1.06.19,2.16.42,3.22.35.76-.05,1.48-.6,2.22-.9.25-.1.52-.13.78-.19,0,.31.12.68-.02.91-.74,1.23-1.89,1.6-3.29,1.5-1.47-.1-2.95-.19-4.42-.1-.52.03-1.23.51-1.43.96-.17.38.14,1.24.51,1.5.38.26,1.1.11,1.65.01.96-.18,1.9-.54,2.86-.65.36-.04,1.01.35,1.12.69.21.65-.11,1-.93,1.08-.79.07-1.54.52-2.54.89Z"/><path class="cls-1" d="M126.24,18.4c.23.65.34,1.45-.73,1.97-.24.11-.47.4-.55.65-.67,2.03-2.78,2.46-4.13,3.72-.12.11-.61.07-.65-.02-.12-.29-.23-.68-.13-.94.26-.65.63-1.25.96-1.88-.1-.08-.2-.15-.3-.23-.41.37-.96.66-1.21,1.11-.69,1.29-1.9,1.88-3.12,2.44-.36.16-.92.08-1.31-.07-.53-.21-.98-.65-1.5-.9-1.17-.55-1.33-1.32-.24-1.99.99-.6,2.16-.9,3.22-1.41,1.46-.69,2.85-1.54,4.34-2.15.9-.36,1.92-.47,2.9-.54.7-.06,1.41.12,2.43.23Z"/><path class="cls-1" d="M138.78,27.96c.19,1.42.38,2.85.59,4.45.43-.68.82-1.28,1.32-2.08.42.71.73,1.24,1.24,2.09.13-1.4.23-2.49.36-3.93.38.33.61.63.9.76.7.33,1.41.66,2.15.84,1.07.26,1.29,1.01.85,1.76-.95,1.61-2.14,3.08-3.12,4.68-.69,1.12-1.34,2.14-2.86,1.4-.46-.23-1.19-.69-1.16-.99.05-.56.53-1.11.88-1.62.11-.17.37-.24.8-.5-.48-.15-.71-.26-.96-.3-2.17-.36-3.21-1.89-2.65-4.04.22-.87.64-1.69.96-2.53.23,0,.46.02.7.02Z"/><path class="cls-1" d="M528.49,133.56c.23.29.49.59.7.91,1.01,1.48.87,1.57-.69,2.51-.86.52-1.41,1.55-2.33,2.62-.4-.2-1.12-.75-1.92-.89-.72-.13-1.53.2-2.73.39.88.68,1.36,1.05,2.02,1.56-.6.46-1.11.85-1.61,1.24-1.71-2.04-2.25-3.72-.95-4.79,1.51-1.23.83-2.51.83-3.79,0-.6-.43-1.19-.57-1.81-.07-.28,0-.66.15-.9.07-.11.59-.05.78.09.67.49,1.3,1.04,1.92,1.59,1.62,1.47,2.65,1.78,4.39,1.27Z"/><path class="cls-1" d="M260.64,120.54c2.91.09,3.61,1.31,2.56,3.4-.22.43-.17,1.04-.11,1.55.2,1.82-.34,2.69-2.04,3.32-.69.25-1.29.75-1.99.93-.72.18-1.56.3-2.24.08-.86-.27-1.21-.99-.46-1.83.78-.89,1.22-1.72.51-3-.6-1.09.07-1.9,1.24-2.24.43-.13.75-.64,1.12-.97.57-.5,1.14-.99,1.42-1.23Z"/><path class="cls-1" d="M499.8,198.91c.18.72.25,1.32.49,1.84.52,1.12.31,2.1-.4,3.03-.55.73-1.17,1.43.04,2.19.2.13.08.77.11,1.16,3.26.08,4.89,1.92,4.19,4.87-.39-.13-.77-.25-1.32-.42,1.08-1.21-.05-1.91-.61-2.42-.6-.54-1.62-.65-2.48-.84-.25-.06-.59.26-.95.45.12.24.24.4.27.57.1.58.19,1.16.23,1.75,0,.03-.66.21-.7.13-.37-.62-1.1-1.55-.9-1.88.73-1.16-.24-1.79-.67-2.35-1-1.3-1.55-2.53-.9-4.17.26-.66.19-1.45.28-2.19.21-1.87.45-2.05,2.29-1.82.34.04.68.05,1.05.08Z"/><path class="cls-1" d="M146.12,18.04c-.05-.54-.14-1.08-.14-1.63,0-.85-.25-1.91.16-2.5.32-.46,1.59-.65,2.23-.41.57.22.84,1.2,1.39,2.07.73-.09.78.61,1.24,1.53,1.41,2.82-1.49,4.22-1.73,6.43-.03.3-1,.49-1.54.73-.15-.48-.47-.98-.43-1.45.13-1.27-.53-2.32-2.08-3.02-.6-.27-1.77-.12-1.34-1.23.16-.42,1.13-.52,1.73-.77.17.08.34.16.51.25Z"/><path class="cls-1" d="M485.62,249.21c-.39.22-.72.4-1.27.7,1.67.56,3.12,1.04,4.57,1.53,0,.16-.02.31-.03.47-1.04.1-2.09.29-3.13.26-1.06-.04-2.12-.27-3.17-.47-1.34-.25-2.67-.58-4.01-.82-1.48-.27-3-.38-4.46-.75-1.14-.29-2.22-.87-3.4-1.35.32-.72.56-1.24.84-1.86,1.72.22,3.44-.06,4.99,1.24.88.74,2.23.99,3.42.1.3-.22.83-.32,1.2-.23,1.42.33,2.83.75,4.44,1.19Z"/><path class="cls-1" d="M119.23,194.42c1.07-2.36,3.68-3.19,5.95-2.76,4.24.79,7.69,3.35,11.62,4.81.45.17.81.61,1.22.94-1.3,1.32-3.23,1.2-5.77.87.05-.41.1-.83.11-.98-.83-.73-1.42-1.51-2.2-1.89-1.26-.61-2.65-.95-3.97-1.43-.81-.3-1.57-.7-2.39-.95-.36-.11-.83-.05-1.2.08-1.14.4-2.25.87-3.38,1.32Z"/><path class="cls-1" d="M393.2,14.87c-.01-.66.63-1.09,1.68-.61,1.25.57,2.5,1.15,3.76,1.69,2.06.87,2.4,2.53.76,3.97-1.03.9-2.07,1.8-3.17,2.62-.22.16-.76,0-1.1-.14-.17-.07-.29-.4-.35-.63-.5-2.13-.99-4.27-1.59-6.89Z"/><path class="cls-1" d="M501.3,221.32c-.09-1.44,1.83-2.91,3.19-2.47,1.44.47,1.74-1.07,2.58-1.66.27-.19.31-.7.45-1.07,1.68,1.09,1.83,2.92,2.22,4.6.31,1.34-.54,1.53-1.58,1.21-.07.18-.14.27-.14.36,0,.69.8,1.7-.48,1.91-1.07.18-2-.28-2.5-1.4-.3-.68.42-2.03-1.11-1.94-.85.05-1.68.28-2.63.45Z"/><path class="cls-1" d="M149.13,200.98c-1.67.26-3.18.11-4.24.73-2.06,1.21-3.92-.33-5.86,0-.35.06-.75-.18-1.12-.29,0-.13,0-.27,0-.4.95-.25,1.9-.49,3.03-.79-.21-.49-.42-.9-.55-1.34-.07-.24-.11-.62.03-.76.15-.16.51-.17.78-.16.75.04,1.51.22,2.26.17,2.29-.14,3.82,1.16,5.66,2.83Z"/><path class="cls-1" d="M423.08,216.89c1.65,1.27,2.8,2.91,3.16,5,.2,1.15-.75,2.24-1.89,2.43-1.38.22-1.78-.79-1.84-1.76-.12-1.85,0-3.72,0-5.58.19-.03.37-.06.56-.08Z"/><path class="cls-1" d="M131.07,18.04c1.63-.5,3.29-.22,4.91.49-.74.99-1.23,2-2.03,2.6-.65.48-1.78.81-2.49.58-.61-.2-.97-1.28-1.36-2.01-.16-.3-.07-.72-.16-1.07-.14-.51-.37-.99-.48-1.5-.02-.1.5-.42.52-.4.36.39.69.81,1.09,1.31Z"/><path class="cls-1" d="M153.64,25.45c-2.05-.34-2.46-.85-1.98-2.58.3-1.06.59-2.16,1.11-3.11.47-.85,1.3-.82,1.64.15.47,1.32,2.23,2.42.88,4.09-.46.56-1.1.97-1.65,1.45Z"/><path class="cls-1" d="M496.6,191.51c-2.58-1.93-2.68-5.41-.52-7.1.25-.19.89-.31.99-.18.28.34.53.86.48,1.27-.25,1.92-.6,3.83-.96,6.01Z"/><path class="cls-1" d="M148.42,38.73c-.62.89-1.24,1.78-1.85,2.67-.86-.78-1.72-1.55-2.57-2.33.82-.79,1.52-1.93,2.51-2.29,1.1-.41,1.47.75,1.92,1.95Z"/><path class="cls-1" d="M464.4,13.76c1.87-.17,3.56-.4,5.25-.42.44,0,1.09.54,1.26.99.13.33-.23,1.05-.59,1.33-1.34,1.03-5-.04-5.91-1.89Z"/><path class="cls-1" d="M550.57,245.76c1.25-.14,2.41-.49,3.48-.32,1.29.21,1.87-.34,2.52-1.23.27-.37.86-.52,1.3-.77,0,.49.16,1.07-.04,1.46-1.46,2.83-5.37,3.4-7.27.86Z"/><path class="cls-1" d="M462.96,27.43c.04-.36,0-.67.11-.92.32-.75.54-1.97,1.06-2.13,1.3-.4,2.6.12,3.53,1.21.54.64.5,1.17-.47,1.29-1.35.18-2.7.34-4.23.54Z"/><path class="cls-1" d="M133.17,15.33c1.71-.97,3.34-.76,4.9-.69.13,0,.41,1.5.22,2.19-.24.89-1.12,1.1-1.93.63-1-.59-1.94-1.29-3.19-2.13Z"/><path class="cls-1" d="M477.69,195.78c.15.16.84.54.89.99.13,1.28-1.24,2.65-2.43,2.64-1.08,0-1.64-.61-1.65-1.64-.02-1.04,1.29-1.97,3.2-1.99Z"/><path class="cls-1" d="M289.89,156.72c0,.44.16.99-.04,1.3-.33.51-.89.88-1.35,1.3-.3-.43-.72-.82-.86-1.3-.19-.65-.09-1.38-.26-2.03-.3-1.11.48-1.54,1.2-1.6.4-.03.95.69,1.27,1.17.18.27.03.76.03,1.16,0,0,0,0,0,0Z"/><path class="cls-1" d="M158.37,76.81c-.15-.2-.64-.58-.69-1.01-.12-1.04,1.65-2.9,2.61-2.71.45.09,1.12.71,1.14,1.11.07,1.34-1.36,2.64-3.06,2.6Z"/><path class="cls-1" d="M501.07,212.09c1.08.87,2.16,1.73,3.46,2.77-.36.7-.82,1.61-1.28,2.5q-1.61-.4-.95-2.6c-2.16.31-1.57-1.18-1.64-2.27.14-.13.28-.27.41-.4Z"/><path class="cls-1" d="M510.44,252.26c-2.41,1.3-4.47,2.41-6.69,3.6.1-2.64,3.09-4.23,6.69-3.6Z"/><path class="cls-1" d="M50.6,114.15c-1.18-1.72-.95-3.68-.83-5.59.01-.22.82-.6,1.21-.54.63.09,1.14.44.85,1.35-.47,1.52-.8,3.08-1.23,4.79Z"/><path class="cls-1" d="M513.37,231.14c-.24.45-.38.72-.56,1.07.44.21.85.4,1.42.67-.77,1.46-1.5,2.84-2.35,4.45-.12-1.4-.21-2.36-.29-3.32-.12-1.3.06-2.43,1.8-2.87Z"/><path class="cls-1" d="M506.52,215.46c-.87-.82-1.59-1.49-1.12-2.7.09-.24-.05-.56-.01-.84.06-.41.19-.81.28-1.21.45.2,1.23.33,1.3.63.19.78.14,1.64.07,2.46-.04.49-.29.96-.52,1.66Z"/><path class="cls-1" d="M154.27,28.59c-.84-.32-1.65-.55-2.36-.94-.3-.16-.64-.73-.56-.99.09-.31.7-.76.94-.68.99.32,1.93.79,2.85,1.28.14.07.22.62.1.76-.23.26-.61.38-.96.58Z"/><path class="cls-1" d="M489.68,252.23c1.75-.95,5.09-.88,5.91.12-1.96.52-3.81,1.24-5.91-.12Z"/><path class="cls-1" d="M512.52,242.08c.2-1.36,1.28-1.23,2.13-1.21,1.22.03,2.52.12,3.2,1.68-1.85-.17-3.5-.31-5.33-.48Z"/><path class="cls-1" d="M343.71,73.25c.79.74,1.7,1.38,1.61,1.57-.3.67-.94,1.19-1.46,1.77-.38-.47-1.01-.91-1.08-1.42-.06-.48.47-1.04.92-1.92Z"/><path class="cls-1" d="M496.78,252.12c1.94-1.69,4.04.48,5.79-.78-.76,1.42-3.63,1.79-5.79.78Z"/><path class="cls-1" d="M144.74,91.62c-.83.47-1.64,1-2.51,1.38-.23.1-.73-.18-.95-.43-.11-.12.09-.63.27-.85.81-.98,1.81-1.13,2.92-.66.09.19.18.38.26.56Z"/><path class="cls-1" d="M424.03,33.7c.49.84.95,1.3,1,1.81.03.33-.5.97-.84,1.02-.75.1-1.6-.17-1.47-1.15.06-.48.66-.88,1.31-1.68Z"/><path class="cls-1" d="M496.38,214.89c-1.02,1.11-2.04,2.22-3.08,3.31-.15.16-.41.23-.87.12.41-.52.83-1.03,1.24-1.55.54-.7,1.03-1.44,1.63-2.08.2-.21.68-.15,1.03-.21.02.14.04.27.05.41Z"/><path class="cls-1" d="M119.08,25.99c-.76.6-1.49,1.25-2.3,1.77-.27.17-.76,0-1.15,0,.14-.35.18-.87.43-1.02.88-.5,1.84-.87,2.77-1.29.08.18.17.36.25.54Z"/><path class="cls-1" d="M334.49,166.32c-.36,1.62-1.32,1.93-2.35,2.04-.3.03-.64-.32-.96-.5.19-.3.33-.76.59-.86.79-.28,1.64-.42,2.73-.68Z"/><path class="cls-1" d="M130.56,201.26c1.32-.32,2.48-.6,3.38.64-1.57,1.06-2.37.92-3.38-.64Z"/><path class="cls-1" d="M289.17,150.58c.1.29.32.58.27.82-.16.71-.41,1.41-.63,2.11-.36-.44-.91-.84-1.05-1.34-.3-1.06.39-1.47,1.42-1.58Z"/><path class="cls-1" d="M319.4,167.76c-1.31-.12-2.62-.23-3.92-.35.97-1.06,2.82-.97,3.96-.18-.01.18-.02.35-.03.53Z"/><path class="cls-1" d="M367.76,54.13c.76-.5,1.25-1.04,1.51-.94.46.16.79.72,1.17,1.11-.37.32-.73.9-1.1.9-.41,0-.82-.52-1.58-1.07Z"/><path class="cls-1" d="M498.11,255.36c-.92-.4-1.84-.79-2.91-1.25,1.42-.98,2.41-.67,3.12.75l-.21.51Z"/><path class="cls-1" d="M140.79,22.4c-.16,1.02-.32,2.05-.52,3.32-1.25-1.16-1.12-1.96.52-3.32Z"/><path class="cls-1" d="M153.79,201.51c-.06.16-.09.32-.13.32-.86.06-1.72.1-2.58.15.02-.21-.03-.57.07-.62.9-.43,1.81-.64,2.64.15Z"/><path class="cls-1" d="M539.99,79.95c-.33-.79-1.01-1.59.03-2.38.18-.14.58,0,.88,0-.16.82-.32,1.64-.48,2.46-.14-.03-.28-.05-.43-.08Z"/><path class="cls-1" d="M146.55,95.29c-.29-1.23-.17-2.04.88-2.36.16-.05.67.36.66.52-.09.88-.48,1.58-1.53,1.84Z"/><path class="cls-1" d="M562.84,245.8c.51.41,1.07.78,1.51,1.26.16.17.17.72.02.88-.16.17-.78.22-.88.08-.43-.59-.75-1.27-1.11-1.92.15-.1.3-.21.45-.31Z"/><path class="cls-1" d="M530.92,131.22c.69-.87,1.37-1.74,2.06-2.61.19.14.37.29.56.43l-2.08,2.59-.54-.41Z"/><path class="cls-1" d="M155.98,13.44c.04-.57.03-1.16.16-1.71.02-.07.75.03,1.15.05-.16.59-.32,1.18-.49,1.77-.27-.04-.55-.07-.82-.11Z"/><path class="cls-1" d="M508.84,241.57c.61.06,1.23.12,1.84.17-.03.33-.06.66-.1.99-.62-.07-1.24-.14-1.87-.21.04-.32.08-.64.12-.96Z"/><path class="cls-1" d="M158.9,29.78c-.54.4-.87.71-1.27.87-.08.03-.62-.57-.55-.73.16-.38.5-.73.85-.96.08-.05.5.42.97.82Z"/><path class="cls-1" d="M249.07,55.09c-.47-.19-1.05-.29-1.37-.63-.14-.15.24-.79.39-1.21.46.37.91.75,1.37,1.12-.13.24-.26.48-.39.72Z"/><path class="cls-1" d="M461.31,22.62c.37.71.66,1.12.77,1.56.04.14-.37.4-.58.61-.3-.39-.65-.76-.85-1.19-.06-.13.29-.45.66-.98Z"/><path class="cls-1" d="M146.36,23.31c-.45.31-.78.68-.92.61-.39-.19-.71-.54-1.05-.83.23-.25.56-.76.68-.71.4.15.74.5,1.29.92Z"/><path class="cls-1" d="M539.28,112.72c.29-.71.58-1.42.87-2.13.2.07.4.14.59.2-.24.74-.49,1.47-.73,2.21-.24-.09-.49-.19-.73-.28Z"/><path class="cls-1" d="M143.87,112.24c-.73.46-1.12.76-1.57.93-.1.04-.39-.39-.59-.61.34-.27.65-.62,1.03-.79.18-.08.51.2,1.12.47Z"/><path class="cls-1" d="M303.44,113.53c-.31,1.04-.51,1.71-.77,2.58-1.04-1.37-.96-1.71.77-2.58Z"/></svg>